<svg width="286" height="60" viewBox="0 0 286 60" fill="none" xmlns="http://www.w3.org/2000/svg">
<g clip-path="url(#clip0_515_1130)">
<path d="M9.34858 39.5686C9.34858 43.0178 10.074 45.666 11.0221 47.2681C12.2651 49.3665 14.1192 50.2555 16.0094 50.2555C18.4473 50.2555 20.6776 49.6241 24.9757 43.4199C28.419 38.4471 32.4762 31.467 35.2062 27.0911L39.8293 19.6775C43.0408 14.5288 46.7579 8.80524 51.0199 4.92565C54.4993 1.75916 58.2525 0 62.0299 0C68.3716 0 74.4124 3.8356 79.0355 11.0293C84.0951 18.9079 86.5511 28.8314 86.5511 39.0723C86.5511 45.1602 85.4013 49.6335 83.4449 53.1675C81.5548 56.5853 77.8707 60 71.6734 60V50.2555C76.9798 50.2555 78.3041 45.1665 78.3041 39.3424C78.3041 31.0429 76.4501 21.8325 72.3657 15.2513C69.4672 10.5832 65.7109 7.73089 61.5784 7.73089C57.1088 7.73089 53.512 11.2492 49.4698 17.5225C47.3208 20.8555 45.1146 24.9173 42.6375 29.5005L39.9105 34.5424C34.4326 44.6796 33.0451 46.9885 30.3061 50.799C25.5054 57.4712 21.406 60 16.0094 60C9.60743 60 5.55918 57.1068 3.05198 52.7466C1.00529 49.1937 0 44.5319 0 39.2199L9.34858 39.5686Z" fill="#0081FB"/>
<path d="M7.37109 11.7173C11.6571 4.82199 17.8423 0 24.9366 0C29.045 0 33.1294 1.26911 37.3943 4.90366C42.0596 8.87749 47.0318 15.4209 53.2351 26.2052L55.4594 30.0754C60.829 39.4115 63.884 44.2147 65.6718 46.4796C67.9713 49.3885 69.5816 50.2555 71.6734 50.2555C76.9798 50.2555 78.3041 45.1665 78.3041 39.3424L86.5511 39.0723C86.5511 45.1602 85.4013 49.6335 83.4449 53.1675C81.5548 56.5853 77.8707 60 71.6734 60C67.8208 60 64.4077 59.1267 60.6333 55.4105C57.7318 52.5581 54.3397 47.4911 51.7302 42.9361L43.9678 29.4031C40.0731 22.6115 36.5004 17.5476 34.4326 15.2544C32.2083 12.7885 29.349 9.81047 24.7861 9.81047C21.093 9.81047 17.9567 12.5152 15.3321 16.6524L7.37109 11.7173Z" fill="url(#paint0_linear_515_1130)"/>
<path d="M24.7861 9.81047C21.093 9.81047 17.9567 12.5152 15.3322 16.6524C11.621 22.4984 9.34858 31.2063 9.34858 39.5686C9.34858 43.0178 10.074 45.666 11.0221 47.2681L3.05198 52.7466C1.00529 49.1937 0 44.5319 0 39.2199C0 29.5602 2.54031 19.4921 7.37111 11.7173C11.6571 4.82199 17.8424 0 24.9366 0L24.7861 9.81047Z" fill="url(#paint1_linear_515_1130)"/>
<path d="M104.725 1.8974H115.539L133.926 36.6157L152.316 1.8974H162.896V58.9445H154.074V15.2231L137.947 45.4995H129.67L113.546 15.2231V58.9445H104.725V1.8974ZM190.538 23.1676C184.212 23.1676 180.401 28.1372 179.489 34.2911H200.961C200.519 27.9519 197.015 23.1676 190.538 23.1676ZM170.743 37.7969C170.743 24.8482 178.761 15.4241 190.692 15.4241C202.427 15.4241 209.434 24.7288 209.434 38.488V41.0168H179.489C180.552 47.711 184.808 52.222 191.67 52.222C197.145 52.222 200.567 50.4785 203.812 47.2901L208.498 53.2806C204.083 57.5183 198.466 59.9623 191.357 59.9623C178.442 59.9623 170.743 50.133 170.743 37.7969ZM220.131 23.9843H212.011V16.445H220.131V3.97698H228.643V16.445H240.98V23.9843H228.643V43.0932C228.643 49.6178 230.641 51.9361 235.554 51.9361C237.796 51.9361 239.081 51.7351 240.98 51.4053V58.8628C238.615 59.5602 236.357 59.8806 233.913 59.8806C224.724 59.8806 220.131 54.6409 220.131 44.1519V23.9843ZM276.822 31.3162C275.112 26.8115 271.298 23.4943 265.694 23.4943C258.41 23.4943 253.748 28.888 253.748 37.6744C253.748 46.2409 258.04 51.8953 265.345 51.8953C271.088 51.8953 275.187 48.4084 276.822 44.0702V31.3162ZM285.333 58.9445H276.978V52.9948C274.642 56.4974 270.393 59.9623 263.509 59.9623C252.439 59.9623 245.041 50.2901 245.041 37.6744C245.041 24.9393 252.616 15.4241 263.979 15.4241C269.595 15.4241 274.001 17.7676 276.978 21.9047V16.445H285.333V58.9445Z" fill="#192830"/>
</g>
<defs>
<linearGradient id="paint0_linear_515_1130" x1="18.36" y1="36.7539" x2="77.9674" y2="39.6384" gradientUnits="userSpaceOnUse">
<stop stop-color="#0064E1"/>
<stop offset="0.4" stop-color="#0064E1"/>
<stop offset="0.83" stop-color="#0073EE"/>
<stop offset="1" stop-color="#0082FB"/>
</linearGradient>
<linearGradient id="paint1_linear_515_1130" x1="13.5443" y1="43.6649" x2="13.5443" y2="20.733" gradientUnits="userSpaceOnUse">
<stop stop-color="#0082FB"/>
<stop offset="1" stop-color="#0064E0"/>
</linearGradient>
<clipPath id="clip0_515_1130">
<rect width="285.333" height="60" fill="white"/>
</clipPath>
</defs>
</svg>
