<svg width="28" height="28" viewBox="0 0 28 28" fill="none" xmlns="http://www.w3.org/2000/svg">
<path d="M23.0867 0C25.7991 0 27.9979 2.19878 27.9979 4.91111V22.2889C27.9979 25.0012 25.7991 27.2 23.0867 27.2H5.70896C2.99663 27.2 0.797852 25.0012 0.797852 22.2889V4.91111C0.797852 2.19878 2.99663 0 5.70896 0H23.0867ZM23.0867 2.26667H5.70896C4.24848 2.26667 3.06452 3.45062 3.06452 4.91111V22.2889C3.06452 23.7494 4.24848 24.9333 5.70896 24.9333H23.0867C24.5472 24.9333 25.7312 23.7494 25.7312 22.2889V4.91111C25.7312 3.45062 24.5472 2.26667 23.0867 2.26667ZM10.4216 18.5173L9.65204 19.8354C9.3363 20.3758 8.64222 20.558 8.10174 20.2423C7.60635 19.9528 7.41199 19.3455 7.62622 18.83L7.69486 18.692L7.79531 18.5173H10.4216ZM16.3511 10.6142L18.9487 15.1173L21.5785 15.1186C22.1523 15.1186 22.6264 15.545 22.7015 16.0981L22.7118 16.2519C22.7118 16.8257 22.2855 17.2999 21.7323 17.3749L21.5785 17.3853L20.2558 17.3839L21.0148 18.6988C21.3276 19.2409 21.1417 19.934 20.5995 20.2468C20.1025 20.5335 19.4787 20.4012 19.1373 19.9595L19.0515 19.8315L15.0349 12.8687L16.3511 10.6142ZM16.3066 6.19776C16.802 6.48719 16.9963 7.09453 16.7821 7.61003L16.7135 7.74804L12.4071 15.117L15.0235 15.1184L16.3306 17.385L7.22246 17.3853C6.59653 17.3853 6.08912 16.8778 6.08912 16.2519C6.08912 15.6782 6.51549 15.204 7.06867 15.1289L7.22246 15.1186L9.78228 15.1186L13.078 9.47607L12.077 7.74271C11.7903 7.24573 11.9226 6.62194 12.3643 6.28049L12.4923 6.19468C12.9893 5.90795 13.6131 6.0403 13.9545 6.48195L14.0403 6.60998L14.3926 7.223L14.7563 6.60466C15.072 6.06421 15.7661 5.88203 16.3066 6.19776Z" fill="white"/>
</svg>
