<svg width="18" height="18" viewBox="0 0 18 18" fill="none" xmlns="http://www.w3.org/2000/svg">
<path d="M17.6925 2.60108C17.5012 2.07607 17.1972 1.59934 16.8021 1.20442C16.4069 0.809495 15.93 0.505953 15.405 0.315131C14.4225 0 13.53 0 11.715 0H6.27C4.47 0 3.5625 0 2.595 0.300125C2.06898 0.492009 1.59148 0.797082 1.19622 1.1938C0.800963 1.59052 0.497581 2.06922 0.3075 2.59608C0 3.57149 0 4.47186 0 6.27261V11.7249C0 13.5331 0 14.426 0.3 15.4014C0.4907 15.9274 0.794359 16.4051 1.18958 16.8009C1.58481 17.1967 2.06199 17.501 2.5875 17.6924C3.5625 18 4.4625 18 6.2625 18H11.7225C13.53 18 14.43 18 15.3975 17.6999C15.9249 17.5089 16.4039 17.2043 16.8005 16.8075C17.1971 16.4107 17.5016 15.9315 17.6925 15.4039C18 14.4285 18 13.5281 18 11.7274V6.28762C18 4.47937 18 3.57899 17.6925 2.60358V2.60108ZM13.065 6.07753L12.365 6.77782C12.2972 6.84038 12.2087 6.87574 12.1164 6.87712C12.0242 6.87851 11.9347 6.84582 11.865 6.78533C11.1895 6.21461 10.3342 5.90104 9.45 5.89996C8.7225 5.89996 7.995 6.14006 7.995 6.80784C7.995 7.47562 8.775 7.70821 9.675 8.04585C11.25 8.57107 12.555 9.23135 12.555 10.777C12.555 12.4577 11.25 13.6132 9.12 13.7407L8.925 14.6411C8.90776 14.7238 8.86255 14.7981 8.79698 14.8514C8.73141 14.9047 8.64948 14.9338 8.565 14.9337H7.2225L7.155 14.9262C7.05891 14.9047 6.97515 14.8461 6.92183 14.7633C6.8685 14.6805 6.84988 14.58 6.87 14.4835L7.08 13.5306C6.27141 13.3272 5.52801 12.9209 4.92 12.3501V12.3426C4.88644 12.3092 4.85981 12.2694 4.84164 12.2256C4.82347 12.1819 4.81412 12.1349 4.81412 12.0875C4.81412 12.0401 4.82347 11.9932 4.84164 11.9494C4.85981 11.9056 4.88644 11.8659 4.92 11.8324L5.67 11.1046C5.7381 11.0408 5.82793 11.0053 5.92125 11.0053C6.01457 11.0053 6.1044 11.0408 6.1725 11.1046C6.85884 11.7532 7.77095 12.1085 8.715 12.095C9.69 12.095 10.3425 11.6824 10.3425 11.0296C10.3425 10.3768 9.6825 10.2043 8.4375 9.73906C7.1175 9.26636 5.865 8.59858 5.865 7.03793C5.865 5.22218 7.3725 4.33681 9.1575 4.25427L9.345 3.33139C9.36244 3.24937 9.40795 3.17601 9.47367 3.12396C9.53939 3.07191 9.6212 3.04443 9.705 3.04627H11.04L11.115 3.05377C11.1614 3.06346 11.2054 3.08223 11.2445 3.10901C11.2836 3.13579 11.317 3.17004 11.3428 3.2098C11.3686 3.24956 11.3862 3.29403 11.3948 3.34065C11.4033 3.38728 11.4025 3.43513 11.3925 3.48145L11.19 4.50938C11.8708 4.73529 12.5021 5.08929 13.05 5.55231L13.065 5.56732C13.0989 5.60061 13.1258 5.64031 13.1441 5.68411C13.1625 5.72791 13.1719 5.77493 13.1719 5.82243C13.1719 5.86992 13.1625 5.91694 13.1441 5.96074C13.1258 6.00454 13.0989 6.04424 13.065 6.07753Z" fill="white"/>
</svg>
