<svg width="103" height="88" viewBox="0 0 103 88" fill="none" xmlns="http://www.w3.org/2000/svg">
<g id="Group 1000003165">
<g id="Group 1000003160">
<path id="Line 15 (Stroke)" fill-rule="evenodd" clip-rule="evenodd" d="M8.26146 67.1838C8.81173 67.1838 9.25781 67.6299 9.25781 68.1802L9.25781 81.1327C9.25781 81.683 8.81173 82.1291 8.26146 82.1291C7.71119 82.1291 7.26511 81.683 7.26511 81.1327L7.26511 68.1802C7.26511 67.6299 7.71119 67.1838 8.26146 67.1838Z" fill="#FAD1D8"/>
<path id="Line 15 (Stroke)_2" fill-rule="evenodd" clip-rule="evenodd" d="M15.7346 74.6565C15.7346 75.2068 15.2885 75.6528 14.7382 75.6528L1.78565 75.6528C1.23538 75.6528 0.789304 75.2067 0.789304 74.6565C0.789304 74.1062 1.23538 73.6601 1.78565 73.6601L14.7382 73.6601C15.2885 73.6601 15.7346 74.1062 15.7346 74.6565Z" fill="#FAD1D8"/>
<path id="Line 15 (Stroke)_3" fill-rule="evenodd" clip-rule="evenodd" d="M85.1204 12.5293C85.3301 12.5293 85.5 12.6992 85.5 12.9089L85.5 17.8432C85.5 18.0528 85.3301 18.2227 85.1204 18.2227C84.9108 18.2227 84.7409 18.0528 84.7409 17.8432L84.7409 12.9089C84.7409 12.6992 84.9108 12.5293 85.1204 12.5293Z" fill="#FAD1D8"/>
<path id="Line 15 (Stroke) (Stroke)" fill-rule="evenodd" clip-rule="evenodd" d="M85.1231 12.3011C85.4585 12.3011 85.7304 12.573 85.7304 12.9084L85.7304 17.8428C85.7304 18.1782 85.4585 18.4501 85.1231 18.4501C84.7877 18.4501 84.5158 18.1782 84.5158 17.8428L84.5158 12.9084C84.5158 12.573 84.7877 12.3011 85.1231 12.3011ZM85.2749 12.9084C85.2749 12.8246 85.207 12.7566 85.1231 12.7566C85.0393 12.7566 84.9713 12.8246 84.9713 12.9084L84.9713 17.8428C84.9713 17.9266 85.0393 17.9946 85.1231 17.9946C85.207 17.9946 85.2749 17.9266 85.2749 17.8428L85.2749 12.9084Z" fill="#FAD1D8"/>
<path id="Line 15 (Stroke)_4" fill-rule="evenodd" clip-rule="evenodd" d="M87.9688 15.3756C87.9688 15.5852 87.7988 15.7551 87.5892 15.7551L82.6549 15.7551C82.4453 15.7551 82.2753 15.5852 82.2753 15.3756C82.2753 15.1659 82.4453 14.996 82.6549 14.996L87.5892 14.996C87.7988 14.996 87.9688 15.1659 87.9688 15.3756Z" fill="#FAD1D8"/>
<path id="Line 15 (Stroke) (Stroke)_2" fill-rule="evenodd" clip-rule="evenodd" d="M88.1953 15.3759C88.1953 15.7113 87.9234 15.9832 87.588 15.9832L82.6537 15.9832C82.3183 15.9832 82.0464 15.7113 82.0464 15.3759C82.0464 15.0405 82.3183 14.7686 82.6537 14.7686L87.588 14.7686C87.9234 14.7686 88.1953 15.0405 88.1953 15.3759ZM87.588 15.5277C87.6719 15.5277 87.7398 15.4597 87.7398 15.3759C87.7398 15.292 87.6719 15.224 87.588 15.224L82.6537 15.224C82.5699 15.224 82.5019 15.292 82.5019 15.3759C82.5019 15.4597 82.5699 15.5277 82.6537 15.5277L87.588 15.5277Z" fill="#FAD1D8"/>
<path id="Line 15 (Stroke)_5" fill-rule="evenodd" clip-rule="evenodd" d="M102.265 29.1477C102.669 29.5213 102.693 30.1517 102.32 30.5557L93.5249 40.0648C93.1513 40.4688 92.5209 40.4934 92.1169 40.1197C91.713 39.7461 91.6884 39.1157 92.062 38.7117L100.857 29.2027C101.23 28.7987 101.861 28.7741 102.265 29.1477Z" fill="#FAD1D8"/>
<path id="Line 15 (Stroke)_6" fill-rule="evenodd" clip-rule="evenodd" d="M92.1182 29.1477C91.7142 29.5213 91.6896 30.1517 92.0632 30.5557L100.858 40.0648C101.232 40.4688 101.862 40.4934 102.266 40.1197C102.67 39.7461 102.694 39.1157 102.321 38.7117L93.5262 29.2027C93.1525 28.7987 92.5222 28.7741 92.1182 29.1477Z" fill="#FAD1D8"/>
<path id="Ellipse 218 (Stroke)" fill-rule="evenodd" clip-rule="evenodd" d="M19.0772 8.54381C20.9638 8.54381 22.4933 7.01439 22.4933 5.12775C22.4933 3.24111 20.9638 1.71169 19.0772 1.71169C17.1906 1.71169 15.6612 3.24111 15.6612 5.12775C15.6612 7.01439 17.1906 8.54381 19.0772 8.54381ZM19.0772 10.2518C21.9072 10.2518 24.2013 7.95771 24.2013 5.12775C24.2013 2.29779 21.9072 0.00366211 19.0772 0.00366211C16.2473 0.00366211 13.9531 2.29779 13.9531 5.12775C13.9531 7.95771 16.2473 10.2518 19.0772 10.2518Z" fill="#FAD1D8"/>
<path id="Ellipse 219 (Stroke)" fill-rule="evenodd" clip-rule="evenodd" d="M81.71 85.9745C83.5967 85.9745 85.1261 84.4451 85.1261 82.5584C85.1261 80.6718 83.5967 79.1424 81.71 79.1424C79.8234 79.1424 78.294 80.6718 78.294 82.5584C78.294 84.4451 79.8234 85.9745 81.71 85.9745ZM81.71 87.6825C84.54 87.6825 86.8341 85.3884 86.8341 82.5584C86.8341 79.7285 84.54 77.4343 81.71 77.4343C78.8801 77.4343 76.5859 79.7285 76.5859 82.5584C76.5859 85.3884 78.8801 87.6825 81.71 87.6825Z" fill="#FAD1D8"/>
</g>
<circle id="Ellipse 220" cx="50.393" cy="44.4123" r="37.5766" fill="#FAD1D8"/>
</g>
</svg>
