<svg width="103" height="88" viewBox="0 0 103 88" fill="none" xmlns="http://www.w3.org/2000/svg">
<g id="Group 1000003226">
<circle id="Ellipse 220" cx="50.393" cy="44.4123" r="37.5766" fill="#F0F4F0"/>
<g id="Group 1000003225">
<g id="Group 1000003160">
<path id="Line 15 (Stroke)" fill-rule="evenodd" clip-rule="evenodd" d="M8.26146 67.1838C8.81173 67.1838 9.25781 67.6299 9.25781 68.1802L9.25781 81.1327C9.25781 81.683 8.81173 82.1291 8.26146 82.1291C7.71119 82.1291 7.26511 81.683 7.26511 81.1327L7.26511 68.1802C7.26511 67.6299 7.71119 67.1838 8.26146 67.1838Z" fill="#508A95"/>
<path id="Line 15 (Stroke)_2" fill-rule="evenodd" clip-rule="evenodd" d="M15.7346 74.6565C15.7346 75.2068 15.2885 75.6528 14.7382 75.6528L1.78565 75.6528C1.23538 75.6528 0.789304 75.2067 0.789304 74.6565C0.789304 74.1062 1.23538 73.6601 1.78565 73.6601L14.7382 73.6601C15.2885 73.6601 15.7346 74.1062 15.7346 74.6565Z" fill="#508A95"/>
<path id="Line 15 (Stroke)_3" fill-rule="evenodd" clip-rule="evenodd" d="M85.1204 12.5293C85.3301 12.5293 85.5 12.6992 85.5 12.9089L85.5 17.8432C85.5 18.0528 85.3301 18.2227 85.1204 18.2227C84.9108 18.2227 84.7409 18.0528 84.7409 17.8432L84.7409 12.9089C84.7409 12.6992 84.9108 12.5293 85.1204 12.5293Z" fill="#508A95"/>
<path id="Line 15 (Stroke) (Stroke)" fill-rule="evenodd" clip-rule="evenodd" d="M85.1231 12.3013C85.4585 12.3013 85.7304 12.5732 85.7304 12.9086L85.7304 17.8429C85.7304 18.1783 85.4585 18.4502 85.1231 18.4502C84.7877 18.4502 84.5158 18.1783 84.5158 17.8429L84.5158 12.9086C84.5158 12.5732 84.7877 12.3013 85.1231 12.3013ZM85.2749 12.9086C85.2749 12.8247 85.207 12.7567 85.1231 12.7567C85.0393 12.7567 84.9713 12.8247 84.9713 12.9086L84.9713 17.8429C84.9713 17.9267 85.0393 17.9947 85.1231 17.9947C85.207 17.9947 85.2749 17.9267 85.2749 17.8429L85.2749 12.9086Z" fill="#508A95"/>
<path id="Line 15 (Stroke)_4" fill-rule="evenodd" clip-rule="evenodd" d="M87.9688 15.3756C87.9688 15.5852 87.7988 15.7551 87.5892 15.7551L82.6549 15.7551C82.4453 15.7551 82.2753 15.5852 82.2753 15.3756C82.2753 15.1659 82.4453 14.996 82.6549 14.996L87.5892 14.996C87.7988 14.996 87.9688 15.1659 87.9688 15.3756Z" fill="#508A95"/>
<path id="Line 15 (Stroke) (Stroke)_2" fill-rule="evenodd" clip-rule="evenodd" d="M88.1953 15.3759C88.1953 15.7113 87.9234 15.9832 87.588 15.9832L82.6537 15.9832C82.3183 15.9832 82.0464 15.7113 82.0464 15.3759C82.0464 15.0405 82.3183 14.7686 82.6537 14.7686L87.588 14.7686C87.9234 14.7686 88.1953 15.0405 88.1953 15.3759ZM87.588 15.5277C87.6719 15.5277 87.7398 15.4597 87.7398 15.3759C87.7398 15.292 87.6719 15.224 87.588 15.224L82.6537 15.224C82.5699 15.224 82.5019 15.292 82.5019 15.3759C82.5019 15.4597 82.5699 15.5277 82.6537 15.5277L87.588 15.5277Z" fill="#508A95"/>
<path id="Line 15 (Stroke)_5" fill-rule="evenodd" clip-rule="evenodd" d="M102.265 29.1477C102.669 29.5213 102.693 30.1517 102.32 30.5557L93.5249 40.0648C93.1513 40.4688 92.5209 40.4934 92.1169 40.1197C91.713 39.7461 91.6884 39.1157 92.062 38.7117L100.857 29.2027C101.23 28.7987 101.861 28.7741 102.265 29.1477Z" fill="#508A95"/>
<path id="Line 15 (Stroke)_6" fill-rule="evenodd" clip-rule="evenodd" d="M92.1182 29.1477C91.7142 29.5213 91.6896 30.1517 92.0632 30.5557L100.858 40.0648C101.232 40.4688 101.862 40.4934 102.266 40.1197C102.67 39.7461 102.694 39.1157 102.321 38.7117L93.5262 29.2027C93.1525 28.7987 92.5222 28.7741 92.1182 29.1477Z" fill="#508A95"/>
<path id="Ellipse 218 (Stroke)" fill-rule="evenodd" clip-rule="evenodd" d="M19.0772 8.54381C20.9638 8.54381 22.4933 7.01439 22.4933 5.12775C22.4933 3.24111 20.9638 1.71169 19.0772 1.71169C17.1906 1.71169 15.6612 3.24111 15.6612 5.12775C15.6612 7.01439 17.1906 8.54381 19.0772 8.54381ZM19.0772 10.2518C21.9072 10.2518 24.2013 7.95771 24.2013 5.12775C24.2013 2.29779 21.9072 0.00366211 19.0772 0.00366211C16.2473 0.00366211 13.9531 2.29779 13.9531 5.12775C13.9531 7.95771 16.2473 10.2518 19.0772 10.2518Z" fill="#508A95"/>
<path id="Ellipse 219 (Stroke)" fill-rule="evenodd" clip-rule="evenodd" d="M81.71 85.9745C83.5967 85.9745 85.1261 84.4451 85.1261 82.5584C85.1261 80.6718 83.5967 79.1424 81.71 79.1424C79.8234 79.1424 78.294 80.6718 78.294 82.5584C78.294 84.4451 79.8234 85.9745 81.71 85.9745ZM81.71 87.6825C84.54 87.6825 86.8341 85.3884 86.8341 82.5584C86.8341 79.7285 84.54 77.4343 81.71 77.4343C78.8801 77.4343 76.5859 79.7285 76.5859 82.5584C76.5859 85.3884 78.8801 87.6825 81.71 87.6825Z" fill="#508A95"/>
</g>
<g id="Group 1000003220">
<path id="Vector" d="M69 59.3072C69.0025 59.4312 68.955 59.4901 68.8411 59.5378C67.3747 60.1455 65.9121 60.7621 64.4469 61.3712C63.4622 61.7809 62.4738 62.1845 61.4878 62.5917C60.8247 62.8662 60.1603 63.1406 59.5009 63.4251C59.3208 63.5028 59.1581 63.5103 58.9742 63.4451C58.4199 63.2497 57.8619 63.0654 57.3038 62.8775C55.8387 62.385 54.3735 61.8937 52.9084 61.4012C50.8915 60.7233 48.8758 60.0453 46.8601 59.3673C44.6605 58.6267 42.4609 57.8873 40.2613 57.1467C38.1618 56.4399 36.0611 55.7319 33.9616 55.0238C33.0207 54.7055 32.0785 54.3872 31.1376 54.0677C31.0951 54.0526 31.0538 54.0326 31.0113 54.015C31.0075 53.9937 31.0038 53.9712 31 53.9499C31.0751 53.9311 31.1539 53.8872 31.2252 53.8972C32.0948 54.0188 32.9631 54.1466 33.8302 54.2769C34.7911 54.4198 35.7508 54.5689 36.7117 54.7105C37.6163 54.8434 38.5222 54.9662 39.4268 55.099C40.1262 55.2018 40.8231 55.3158 41.5213 55.4198C42.2207 55.5238 42.9201 55.6216 43.6183 55.7256C44.0762 55.7933 44.5317 55.8735 44.9883 55.9424C45.6365 56.0376 46.2858 56.1266 46.9327 56.2219C47.7397 56.3397 48.5467 56.4625 49.3538 56.5828C50.2534 56.7156 51.153 56.8447 52.0526 56.9788C52.7157 57.0765 53.3776 57.1818 54.0407 57.2795C54.7852 57.3898 55.5322 57.4926 56.2766 57.6054C57.0423 57.7194 57.8056 57.8422 58.5713 57.96C58.7602 57.9888 58.9517 58.0101 59.1431 58.034C59.2632 58.049 59.2632 57.9638 59.2632 57.8823C59.2632 57.5164 59.2607 57.1517 59.2595 56.7858C59.2595 55.9712 59.2595 55.1567 59.2595 54.3434C59.2595 53.4448 59.2545 52.5476 59.2545 51.649C59.2545 50.8921 59.2582 50.1352 59.2582 49.3783C59.2582 48.4597 59.2545 47.5411 59.2545 46.6226C59.2545 45.1025 59.257 43.5836 59.257 42.0648C59.257 40.2427 59.2545 38.4205 59.2545 36.5997C59.2545 35.1172 59.2545 33.6347 59.2545 32.1522C59.2545 30.2874 59.252 28.424 59.252 26.5605C59.2532 25.9602 59.257 25.3612 59.2582 24.761C59.2595 24.6782 59.2582 24.5968 59.2582 24.489C59.332 24.5116 59.4058 24.5266 59.4734 24.5542C60.9486 25.1682 62.4225 25.7835 63.8976 26.3976C65.5067 27.068 67.117 27.7385 68.726 28.4089C68.9987 28.5217 68.9962 28.5217 68.9962 28.8212C68.9962 30.2837 68.9962 31.7449 68.9962 33.2073V53.2794C68.9962 54.9599 68.9962 56.6404 68.9962 58.3209C68.9962 58.6493 68.9912 58.9788 68.9975 59.3072H69Z" fill="#508A95"/>
<path id="Vector_2" d="M54.3311 49.5863C54.3311 47.5298 54.3273 45.4721 54.3273 43.4157C54.3261 39.8228 54.3261 36.2312 54.3298 32.6396C54.3298 32.508 54.2873 32.4454 54.1672 32.3965C53.4991 32.1195 52.8334 31.8363 52.1678 31.5519C51.1581 31.122 50.1484 30.6909 49.1411 30.2548C49.021 30.2034 48.941 30.2235 48.8509 30.3137C47.2694 31.8814 45.6841 33.4454 44.1013 35.0131C43.4082 35.6986 42.7225 36.3904 42.0281 37.0758C41.3938 37.7024 40.7531 38.3228 40.1188 38.9493C40.035 39.0308 39.9674 39.0421 39.8748 38.9732C39.7547 38.8817 39.6271 38.8002 39.507 38.7087C38.6174 38.037 37.729 37.3603 36.8382 36.6899C36.1212 36.151 35.403 35.6159 34.6799 35.0858C34.6198 35.0419 34.5097 35.0257 34.4384 35.047C33.8653 35.2224 33.2973 35.4091 32.728 35.5946C32.6179 35.6309 32.5128 35.6811 32.3789 35.735C32.4402 35.8014 32.4765 35.844 32.5165 35.8816C32.6955 36.0495 32.8806 36.2099 33.0558 36.3816C33.7214 37.0357 34.3846 37.6924 35.0477 38.3491C35.4293 38.7263 35.8284 39.0872 36.1863 39.487C36.5454 39.8892 36.9858 40.2038 37.3324 40.6173C37.4625 40.7727 37.6164 40.9081 37.7603 41.0509C37.8291 41.1186 37.8579 41.1762 37.7728 41.2602C37.0358 41.9833 36.3026 42.7101 35.5682 43.4357C34.8413 44.1538 34.1143 44.8718 33.3861 45.5887C33.0896 45.8819 32.7905 46.1739 32.4903 46.4621C32.4014 46.5473 32.4102 46.6 32.524 46.6388C32.5541 46.6488 32.5816 46.6626 32.6116 46.6726C33.2135 46.8732 33.8165 47.0724 34.4171 47.2767C34.5172 47.3105 34.596 47.3017 34.6773 47.2353C34.8 47.1376 34.9288 47.0486 35.054 46.9546C36.648 45.7541 38.2445 44.5548 39.8373 43.3517C39.9486 43.2665 40.0237 43.2578 40.1275 43.3643C40.4591 43.7026 40.8019 44.031 41.1373 44.3656C41.9643 45.1901 42.7863 46.0197 43.6159 46.8406C44.1601 47.3794 44.7119 47.9108 45.2662 48.4409C45.4426 48.6088 45.6453 48.7492 45.8167 48.9221C46.112 49.2216 46.3848 49.5424 46.68 49.8419C46.9628 50.1302 47.2681 50.3971 47.5546 50.6815C47.9863 51.1101 48.4142 51.5437 48.8384 51.9811C48.941 52.0864 49.0298 52.0989 49.1674 52.04C50.8052 51.342 52.4455 50.6502 54.0846 49.956C54.3561 49.8407 54.3311 49.9108 54.3311 49.5863ZM48.9973 44.833C48.9973 45.0974 48.9998 45.3631 48.9973 45.6288C48.9973 45.6776 48.9785 45.7265 48.9597 45.8217C46.8715 44.2515 44.812 42.7026 42.7563 41.1562C44.837 39.591 46.884 38.0508 48.9585 36.4906C48.9785 36.626 49.006 36.7312 49.006 36.8352C49.006 38.5884 48.9985 40.3404 48.996 42.0936C48.9948 43.0059 48.996 43.9194 48.996 44.833H48.9973Z" fill="#508A95"/>
</g>
</g>
</g>
</svg>
