<svg width="104" height="88" viewBox="0 0 104 88" fill="none" xmlns="http://www.w3.org/2000/svg">
<g id="Group 1000003224">
<g id="Group 1000003162">
<g id="Group 1000003160">
<path id="Line 15 (Stroke)" fill-rule="evenodd" clip-rule="evenodd" d="M8.38671 67.184C8.93698 67.184 9.38306 67.63 9.38306 68.1803L9.38306 81.1329C9.38306 81.6831 8.93697 82.1292 8.38671 82.1292C7.83644 82.1292 7.39036 81.6831 7.39036 81.1329L7.39036 68.1803C7.39036 67.63 7.83644 67.184 8.38671 67.184Z" fill="#508A95"/>
<path id="Line 15 (Stroke)_2" fill-rule="evenodd" clip-rule="evenodd" d="M15.8593 74.6566C15.8593 75.2069 15.4132 75.653 14.863 75.653L1.91041 75.653C1.36014 75.653 0.91406 75.2069 0.91406 74.6566C0.91406 74.1063 1.36014 73.6603 1.91041 73.6603L14.863 73.6603C15.4132 73.6603 15.8593 74.1063 15.8593 74.6566Z" fill="#508A95"/>
<path id="Line 15 (Stroke)_3" fill-rule="evenodd" clip-rule="evenodd" d="M85.2454 12.5293C85.4551 12.5293 85.625 12.6992 85.625 12.9089L85.625 17.8432C85.625 18.0528 85.4551 18.2227 85.2454 18.2227C85.0358 18.2227 84.8659 18.0528 84.8659 17.8432L84.8659 12.9089C84.8659 12.6992 85.0358 12.5293 85.2454 12.5293Z" fill="#508A95"/>
<path id="Line 15 (Stroke) (Stroke)" fill-rule="evenodd" clip-rule="evenodd" d="M85.2482 12.3013C85.5836 12.3013 85.8555 12.5732 85.8555 12.9086L85.8555 17.8429C85.8555 18.1783 85.5836 18.4502 85.2482 18.4502C84.9128 18.4502 84.6409 18.1783 84.6409 17.8429L84.6409 12.9086C84.6409 12.5732 84.9128 12.3013 85.2482 12.3013ZM85.4 12.9086C85.4 12.8247 85.332 12.7567 85.2482 12.7567C85.1643 12.7567 85.0963 12.8247 85.0963 12.9086L85.0963 17.8429C85.0963 17.9267 85.1643 17.9947 85.2482 17.9947C85.332 17.9947 85.4 17.9267 85.4 17.8429L85.4 12.9086Z" fill="#508A95"/>
<path id="Line 15 (Stroke)_4" fill-rule="evenodd" clip-rule="evenodd" d="M88.0938 15.3756C88.0938 15.5852 87.9238 15.7551 87.7142 15.7551L82.7799 15.7551C82.5703 15.7551 82.4003 15.5852 82.4003 15.3756C82.4003 15.1659 82.5703 14.996 82.7799 14.996L87.7142 14.996C87.9238 14.996 88.0938 15.1659 88.0938 15.3756Z" fill="#508A95"/>
<path id="Line 15 (Stroke) (Stroke)_2" fill-rule="evenodd" clip-rule="evenodd" d="M88.3203 15.3759C88.3203 15.7113 88.0484 15.9832 87.713 15.9832L82.7787 15.9832C82.4433 15.9832 82.1714 15.7113 82.1714 15.3759C82.1714 15.0405 82.4433 14.7686 82.7787 14.7686L87.713 14.7686C88.0484 14.7686 88.3203 15.0405 88.3203 15.3759ZM87.713 15.5277C87.7969 15.5277 87.8648 15.4597 87.8648 15.3759C87.8648 15.292 87.7969 15.224 87.713 15.224L82.7787 15.224C82.6949 15.224 82.6269 15.292 82.6269 15.3759C82.6269 15.4597 82.6949 15.5277 82.7787 15.5277L87.713 15.5277Z" fill="#508A95"/>
<path id="Line 15 (Stroke)_5" fill-rule="evenodd" clip-rule="evenodd" d="M102.39 29.1476C102.794 29.5212 102.818 30.1516 102.445 30.5556L93.65 40.0647C93.2764 40.4686 92.646 40.4932 92.242 40.1196C91.838 39.746 91.8134 39.1156 92.1871 38.7116L100.982 29.2025C101.355 28.7986 101.986 28.774 102.39 29.1476Z" fill="#508A95"/>
<path id="Line 15 (Stroke)_6" fill-rule="evenodd" clip-rule="evenodd" d="M92.2432 29.1477C91.8392 29.5213 91.8146 30.1517 92.1882 30.5557L100.983 40.0648C101.357 40.4688 101.987 40.4934 102.391 40.1197C102.795 39.7461 102.819 39.1157 102.446 38.7117L93.6512 29.2027C93.2775 28.7987 92.6472 28.7741 92.2432 29.1477Z" fill="#508A95"/>
<path id="Ellipse 218 (Stroke)" fill-rule="evenodd" clip-rule="evenodd" d="M19.2061 8.54381C21.0928 8.54381 22.6222 7.01439 22.6222 5.12775C22.6222 3.24111 21.0928 1.71169 19.2061 1.71169C17.3195 1.71169 15.7901 3.24111 15.7901 5.12775C15.7901 7.01439 17.3195 8.54381 19.2061 8.54381ZM19.2061 10.2518C22.0361 10.2518 24.3302 7.95771 24.3302 5.12775C24.3302 2.29779 22.0361 0.00366211 19.2061 0.00366211C16.3762 0.00366211 14.082 2.29779 14.082 5.12775C14.082 7.95771 16.3762 10.2518 19.2061 10.2518Z" fill="#508A95"/>
<path id="Ellipse 219 (Stroke)" fill-rule="evenodd" clip-rule="evenodd" d="M81.8311 85.9745C83.7178 85.9745 85.2472 84.4451 85.2472 82.5584C85.2472 80.6718 83.7178 79.1424 81.8311 79.1424C79.9445 79.1424 78.4151 80.6718 78.4151 82.5584C78.4151 84.4451 79.9445 85.9745 81.8311 85.9745ZM81.8311 87.6825C84.6611 87.6825 86.9552 85.3884 86.9552 82.5584C86.9552 79.7285 84.6611 77.4343 81.8311 77.4343C79.0012 77.4343 76.707 79.7285 76.707 82.5584C76.707 85.3884 79.0012 87.6825 81.8311 87.6825Z" fill="#508A95"/>
</g>
<circle id="Ellipse 220" cx="50.518" cy="44.4126" r="37.5766" fill="#F0F4F0"/>
</g>
<g id="Group 1000003221">
<path id="Vector" d="M69.9629 26.5533C69.9629 26.4094 69.9461 26.2664 69.9372 26.1274H61.9531V60.3702C62.0997 60.269 62.1809 60.2183 62.2572 60.1598C67.1583 56.4026 69.8074 51.4274 69.9332 45.254C70.06 39.0231 69.9629 32.7872 69.9629 26.5533Z" fill="#508A95"/>
<path id="Vector_2" d="M59.9694 34.1859H51.9844V63.8615C54.6593 63.7225 57.146 63.0356 59.5139 61.8752C59.8823 61.6945 59.9783 61.4642 59.9773 61.0731C59.9664 52.29 59.9694 43.507 59.9694 34.7249V34.1859Z" fill="#508A95"/>
<path id="Vector_3" d="M41.9815 37.2552C41.9805 45.2739 41.9785 53.2936 41.9924 61.3123C41.9924 61.4612 42.1379 61.6796 42.2736 61.7481C42.9054 62.0637 43.5482 62.3645 44.2057 62.6226C46.0398 63.3413 47.9423 63.7413 49.9328 63.8307V37.0785H42.0141C41.9983 37.1609 41.9805 37.2085 41.9805 37.2552H41.9815Z" fill="#508A95"/>
<path id="Vector_4" d="M59.9568 28.5853C59.9657 28.2071 59.8192 28.0394 59.4983 27.8795C57.076 26.6755 54.5239 26.0084 51.8163 25.8833C48.882 25.7473 46.0664 26.2476 43.3926 27.4338C39.4689 29.173 36.4305 31.9286 34.3627 35.7057C32.2543 39.5572 31.5413 43.6648 32.287 48.0077C32.3107 48.1457 32.4722 48.3651 32.5732 48.368C33.6229 48.3948 34.6747 48.3839 35.7353 48.3839C34.6331 41.4909 36.5573 35.8298 42.321 31.9504C48.0907 28.0672 54.0584 28.4354 59.9469 32.0279C59.9469 30.8615 59.9301 29.7229 59.9568 28.5853Z" fill="#508A95"/>
<path id="Vector_5" d="M39.9468 50.4109V60.3325C36.449 57.7774 34.1148 54.4987 32.8125 50.4109H39.9468Z" fill="#508A95"/>
</g>
</g>
</svg>
