<svg width="104" height="88" viewBox="0 0 104 88" fill="none" xmlns="http://www.w3.org/2000/svg">
<g id="Group 1000003227">
<g id="Group 1000003160">
<path id="Line 15 (Stroke)" fill-rule="evenodd" clip-rule="evenodd" d="M8.39429 67.1838C8.94456 67.1838 9.39064 67.6299 9.39064 68.1802L9.39064 81.1327C9.39064 81.683 8.94456 82.1291 8.39429 82.1291C7.84402 82.1291 7.39794 81.683 7.39794 81.1327L7.39794 68.1802C7.39794 67.6299 7.84402 67.1838 8.39429 67.1838Z" fill="#508A95"/>
<path id="Line 15 (Stroke)_2" fill-rule="evenodd" clip-rule="evenodd" d="M15.8672 74.6565C15.8672 75.2068 15.4211 75.6528 14.8708 75.6528L1.91828 75.6528C1.36801 75.6528 0.921933 75.2067 0.921933 74.6565C0.921933 74.1062 1.36801 73.6601 1.91828 73.6601L14.8708 73.6601C15.4211 73.6601 15.8672 74.1062 15.8672 74.6565Z" fill="#508A95"/>
<path id="Line 15 (Stroke)_3" fill-rule="evenodd" clip-rule="evenodd" d="M85.2572 12.5293C85.4668 12.5293 85.6367 12.6992 85.6367 12.9089L85.6367 17.8432C85.6367 18.0528 85.4668 18.2227 85.2572 18.2227C85.0475 18.2227 84.8776 18.0528 84.8776 17.8432L84.8776 12.9089C84.8776 12.6992 85.0475 12.5293 85.2572 12.5293Z" fill="#508A95"/>
<path id="Line 15 (Stroke) (Stroke)" fill-rule="evenodd" clip-rule="evenodd" d="M85.256 12.3013C85.5914 12.3013 85.8633 12.5732 85.8633 12.9086L85.8633 17.8429C85.8633 18.1783 85.5914 18.4502 85.256 18.4502C84.9206 18.4502 84.6487 18.1783 84.6487 17.8429L84.6487 12.9086C84.6487 12.5732 84.9206 12.3013 85.256 12.3013ZM85.4078 12.9086C85.4078 12.8247 85.3398 12.7567 85.256 12.7567C85.1721 12.7567 85.1042 12.8247 85.1042 12.9086L85.1042 17.8429C85.1042 17.9267 85.1721 17.9947 85.256 17.9947C85.3398 17.9947 85.4078 17.9267 85.4078 17.8429L85.4078 12.9086Z" fill="#508A95"/>
<path id="Line 15 (Stroke)_4" fill-rule="evenodd" clip-rule="evenodd" d="M88.1016 15.3756C88.1016 15.5852 87.9316 15.7551 87.722 15.7551L82.7877 15.7551C82.5781 15.7551 82.4081 15.5852 82.4081 15.3756C82.4081 15.1659 82.5781 14.996 82.7877 14.996L87.722 14.996C87.9316 14.996 88.1016 15.1659 88.1016 15.3756Z" fill="#508A95"/>
<path id="Line 15 (Stroke) (Stroke)_2" fill-rule="evenodd" clip-rule="evenodd" d="M88.332 15.3756C88.332 15.711 88.0601 15.9829 87.7247 15.9829L82.7904 15.9829C82.455 15.9829 82.1831 15.711 82.1831 15.3756C82.1831 15.0402 82.455 14.7683 82.7904 14.7683L87.7247 14.7683C88.0601 14.7683 88.332 15.0402 88.332 15.3756ZM87.7247 15.5274C87.8086 15.5274 87.8766 15.4595 87.8766 15.3756C87.8766 15.2918 87.8086 15.2238 87.7247 15.2238L82.7904 15.2238C82.7066 15.2238 82.6386 15.2918 82.6386 15.3756C82.6386 15.4595 82.7066 15.5274 82.7904 15.5274L87.7247 15.5274Z" fill="#508A95"/>
<path id="Line 15 (Stroke)_5" fill-rule="evenodd" clip-rule="evenodd" d="M102.397 29.1475C102.801 29.5211 102.826 30.1515 102.452 30.5554L93.6576 40.0645C93.284 40.4685 92.6536 40.4931 92.2496 40.1195C91.8456 39.7459 91.821 39.1155 92.1946 38.7115L100.989 29.2024C101.363 28.7984 101.993 28.7738 102.397 29.1475Z" fill="#508A95"/>
<path id="Line 15 (Stroke)_6" fill-rule="evenodd" clip-rule="evenodd" d="M92.2471 29.1477C91.8431 29.5213 91.8185 30.1517 92.1921 30.5557L100.987 40.0648C101.36 40.4688 101.991 40.4934 102.395 40.1197C102.799 39.7461 102.823 39.1157 102.45 38.7117L93.6551 29.2027C93.2814 28.7987 92.6511 28.7741 92.2471 29.1477Z" fill="#508A95"/>
<path id="Ellipse 218 (Stroke)" fill-rule="evenodd" clip-rule="evenodd" d="M19.21 8.54381C21.0967 8.54381 22.6261 7.01439 22.6261 5.12775C22.6261 3.24111 21.0967 1.71169 19.21 1.71169C17.3234 1.71169 15.794 3.24111 15.794 5.12775C15.794 7.01439 17.3234 8.54381 19.21 8.54381ZM19.21 10.2518C22.04 10.2518 24.3341 7.95771 24.3341 5.12775C24.3341 2.29779 22.04 0.00366211 19.21 0.00366211C16.3801 0.00366211 14.0859 2.29779 14.0859 5.12775C14.0859 7.95771 16.3801 10.2518 19.21 10.2518Z" fill="#508A95"/>
<path id="Ellipse 219 (Stroke)" fill-rule="evenodd" clip-rule="evenodd" d="M81.8389 85.9745C83.7256 85.9745 85.255 84.4451 85.255 82.5584C85.255 80.6718 83.7256 79.1424 81.8389 79.1424C79.9523 79.1424 78.4229 80.6718 78.4229 82.5584C78.4229 84.4451 79.9523 85.9745 81.8389 85.9745ZM81.8389 87.6825C84.6689 87.6825 86.963 85.3884 86.963 82.5584C86.963 79.7285 84.6689 77.4343 81.8389 77.4343C79.009 77.4343 76.7148 79.7285 76.7148 82.5584C76.7148 85.3884 79.009 87.6825 81.8389 87.6825Z" fill="#508A95"/>
</g>
<circle id="Ellipse 220" cx="50.5259" cy="44.4123" r="37.5766" fill="#F0F4F0"/>
<g id="Group 1000003219">
<path id="Vector" d="M55.5173 62.3523H46.0234V65.5648H55.5173V62.3523Z" fill="#508A95"/>
<path id="Vector_2" d="M61.6778 51.3249C59.6944 53.8073 57.7277 56.3021 55.7651 58.8012C55.6091 58.9998 55.4506 59.0624 55.2078 59.0615C52.2523 59.054 49.296 59.054 46.3405 59.0632C46.0768 59.064 45.9158 58.9823 45.7531 58.7753C43.7822 56.2654 41.8046 53.7614 39.8171 51.2648C39.6427 51.0454 39.6335 50.8868 39.7462 50.639C42.5748 44.406 45.3959 38.1704 48.2096 31.9307C48.3306 31.6621 48.4774 31.5553 48.7703 31.5744C49.1399 31.5986 49.5129 31.5803 49.9134 31.5803C49.9243 31.7588 49.9393 31.8932 49.9393 32.0275C49.9418 36.6209 49.9393 41.2144 49.9476 45.8078C49.9485 46.0932 49.87 46.2308 49.5872 46.3435C48.1328 46.9242 47.3301 48.4262 47.6071 49.9857C47.8683 51.4534 49.1716 52.5665 50.6803 52.6099C52.2256 52.6549 53.5381 51.6236 53.9061 50.0758C54.2732 48.5338 53.4321 46.9309 51.9244 46.3293C51.7099 46.2442 51.5898 46.1657 51.5906 45.9012C51.5998 41.2386 51.5981 36.5759 51.6006 31.9124C51.6006 31.8189 51.6165 31.7246 51.629 31.5836C52.1021 31.5836 52.5577 31.5619 53.0083 31.5995C53.1201 31.6087 53.2527 31.7939 53.3136 31.9274C54.5085 34.5499 55.6942 37.1767 56.8824 39.8017C58.5053 43.3863 60.1258 46.9718 61.7562 50.5531C61.8897 50.8459 61.8972 51.0504 61.6778 51.3249Z" fill="#508A95"/>
<path id="Vector_3" d="M68.901 23.5381C67.4258 23.2711 65.9489 24.108 65.4107 25.5466C65.2997 25.8436 65.1654 25.9379 64.8491 25.9371C61.3797 25.9245 57.9102 25.9237 54.4407 25.9396C54.0452 25.9412 53.9075 25.8419 53.9292 25.4347C53.9618 24.8039 53.9376 24.1706 53.9376 23.5331H47.6011C47.6011 24.1965 47.5827 24.8315 47.6086 25.4656C47.6236 25.8219 47.5301 25.9412 47.1505 25.9396C43.681 25.9245 40.2115 25.927 36.7421 25.9362C36.4125 25.9371 36.2398 25.8636 36.1087 25.5199C35.5655 24.0922 34.1062 23.2786 32.6443 23.5398C31.1265 23.811 30.0318 25.1193 30.0142 26.683C29.9959 28.2567 31.0915 29.6026 32.6226 29.8871C34.107 30.1633 35.5897 29.3223 36.138 27.8554C36.2489 27.5575 36.3975 27.4949 36.6803 27.4957C39.3312 27.5041 41.9822 27.5007 44.6322 27.5007H45.5885C45.485 27.5959 45.4675 27.6192 45.4441 27.6317C45.359 27.6776 45.2722 27.7202 45.1854 27.7636C39.4731 30.6006 35.6048 35.0546 33.5329 41.0766C33.0181 42.5743 32.6785 44.1155 32.5316 45.695C32.5008 46.0221 32.4065 46.189 32.0277 46.1623C31.5028 46.1247 30.973 46.1723 30.4473 46.1464C30.0993 46.1289 29.9975 46.2457 30 46.5903C30.0151 48.4502 30.0059 50.3101 30.0076 52.1692C30.0076 52.2894 30.0284 52.4095 30.0409 52.5397H36.3299V46.1531H34.0352C34.5317 41.6506 36.2014 37.7381 39.1068 34.3629C41.4106 31.6878 44.2184 29.7286 47.6011 28.452V29.8897H53.9376C53.9376 29.2313 53.9568 28.6072 53.9301 27.9855C53.9142 27.6151 54.0118 27.4882 54.409 27.4899C57.8785 27.5074 61.3479 27.5057 64.8174 27.4941C65.1403 27.4932 65.2964 27.5708 65.4174 27.8921C65.9622 29.3323 67.4366 30.1592 68.9135 29.8905C70.4388 29.6126 71.5402 28.2626 71.5261 26.688C71.511 25.1243 70.418 23.8118 68.901 23.5381ZM34.7628 47.7443V50.9668H31.5946V47.7443H34.7628Z" fill="#508A95"/>
</g>
</g>
</svg>
