<svg width="103" height="88" viewBox="0 0 103 88" fill="none" xmlns="http://www.w3.org/2000/svg">
<g id="Group 1000003223">
<g id="Group 1000003163">
<g id="Group 1000003160">
<path id="Line 15 (Stroke)" fill-rule="evenodd" clip-rule="evenodd" d="M7.8084 67.1838C8.35867 67.1838 8.80475 67.6299 8.80475 68.1802L8.80475 81.1327C8.80475 81.683 8.35867 82.1291 7.8084 82.1291C7.25813 82.1291 6.81205 81.683 6.81205 81.1327L6.81205 68.1802C6.81205 67.6299 7.25813 67.1838 7.8084 67.1838Z" fill="#508A95"/>
<path id="Line 15 (Stroke)_2" fill-rule="evenodd" clip-rule="evenodd" d="M15.281 74.6565C15.281 75.2068 14.8349 75.6528 14.2847 75.6528L1.33212 75.6528C0.781847 75.6528 0.335767 75.2067 0.335767 74.6565C0.335767 74.1062 0.781847 73.6601 1.33212 73.6601L14.2847 73.6601C14.8349 73.6601 15.281 74.1062 15.281 74.6565Z" fill="#508A95"/>
<path id="Line 15 (Stroke)_3" fill-rule="evenodd" clip-rule="evenodd" d="M84.6712 12.5293C84.8808 12.5293 85.0508 12.6992 85.0508 12.9089L85.0508 17.8432C85.0508 18.0528 84.8808 18.2227 84.6712 18.2227C84.4616 18.2227 84.2917 18.0528 84.2917 17.8432L84.2917 12.9089C84.2917 12.6992 84.4616 12.5293 84.6712 12.5293Z" fill="#508A95"/>
<path id="Line 15 (Stroke) (Stroke)" fill-rule="evenodd" clip-rule="evenodd" d="M84.67 12.3013C85.0054 12.3013 85.2773 12.5732 85.2773 12.9086L85.2773 17.8429C85.2773 18.1783 85.0054 18.4502 84.67 18.4502C84.3346 18.4502 84.0627 18.1783 84.0627 17.8429L84.0627 12.9086C84.0627 12.5732 84.3346 12.3013 84.67 12.3013ZM84.8219 12.9086C84.8219 12.8247 84.7539 12.7567 84.67 12.7567C84.5862 12.7567 84.5182 12.8247 84.5182 12.9086L84.5182 17.8429C84.5182 17.9267 84.5862 17.9947 84.67 17.9947C84.7539 17.9947 84.8219 17.9267 84.8219 17.8429L84.8219 12.9086Z" fill="#508A95"/>
<path id="Line 15 (Stroke)_4" fill-rule="evenodd" clip-rule="evenodd" d="M87.5156 15.3756C87.5156 15.5852 87.3457 15.7551 87.1361 15.7551L82.2018 15.7551C81.9921 15.7551 81.8222 15.5852 81.8222 15.3756C81.8222 15.1659 81.9921 14.996 82.2018 14.996L87.1361 14.996C87.3457 14.996 87.5156 15.1659 87.5156 15.3756Z" fill="#508A95"/>
<path id="Line 15 (Stroke) (Stroke)_2" fill-rule="evenodd" clip-rule="evenodd" d="M87.7422 15.3759C87.7422 15.7113 87.4703 15.9832 87.1349 15.9832L82.2006 15.9832C81.8652 15.9832 81.5933 15.7113 81.5933 15.3759C81.5933 15.0405 81.8652 14.7686 82.2006 14.7686L87.1349 14.7686C87.4703 14.7686 87.7422 15.0405 87.7422 15.3759ZM87.1349 15.5277C87.2187 15.5277 87.2867 15.4597 87.2867 15.3759C87.2867 15.292 87.2187 15.224 87.1349 15.224L82.2006 15.224C82.1167 15.224 82.0488 15.292 82.0488 15.3759C82.0488 15.4597 82.1167 15.5277 82.2006 15.5277L87.1349 15.5277Z" fill="#508A95"/>
<path id="Line 15 (Stroke)_5" fill-rule="evenodd" clip-rule="evenodd" d="M101.811 29.1476C102.215 29.5212 102.24 30.1516 101.866 30.5556L93.0717 40.0647C92.6981 40.4686 92.0677 40.4932 91.6637 40.1196C91.2597 39.746 91.2351 39.1156 91.6088 38.7116L100.403 29.2025C100.777 28.7986 101.407 28.774 101.811 29.1476Z" fill="#508A95"/>
<path id="Line 15 (Stroke)_6" fill-rule="evenodd" clip-rule="evenodd" d="M91.6612 29.1477C91.2572 29.5213 91.2326 30.1517 91.6062 30.5557L100.401 40.0648C100.774 40.4688 101.405 40.4934 101.809 40.1197C102.213 39.7461 102.237 39.1157 101.864 38.7117L93.0691 29.2027C92.6955 28.7987 92.0651 28.7741 91.6612 29.1477Z" fill="#508A95"/>
<path id="Ellipse 218 (Stroke)" fill-rule="evenodd" clip-rule="evenodd" d="M18.6241 8.54381C20.5107 8.54381 22.0401 7.01439 22.0401 5.12775C22.0401 3.24111 20.5107 1.71169 18.6241 1.71169C16.7375 1.71169 15.208 3.24111 15.208 5.12775C15.208 7.01439 16.7375 8.54381 18.6241 8.54381ZM18.6241 10.2518C21.454 10.2518 23.7482 7.95771 23.7482 5.12775C23.7482 2.29779 21.454 0.00366211 18.6241 0.00366211C15.7941 0.00366211 13.5 2.29779 13.5 5.12775C13.5 7.95771 15.7941 10.2518 18.6241 10.2518Z" fill="#508A95"/>
<path id="Ellipse 219 (Stroke)" fill-rule="evenodd" clip-rule="evenodd" d="M81.253 85.9745C83.1396 85.9745 84.6691 84.4451 84.6691 82.5584C84.6691 80.6718 83.1396 79.1424 81.253 79.1424C79.3664 79.1424 77.8369 80.6718 77.8369 82.5584C77.8369 84.4451 79.3664 85.9745 81.253 85.9745ZM81.253 87.6825C84.0829 87.6825 86.3771 85.3884 86.3771 82.5584C86.3771 79.7285 84.0829 77.4343 81.253 77.4343C78.423 77.4343 76.1289 79.7285 76.1289 82.5584C76.1289 85.3884 78.423 87.6825 81.253 87.6825Z" fill="#508A95"/>
</g>
<circle id="Ellipse 220" cx="49.9398" cy="44.4123" r="37.5766" fill="#F0F4F0"/>
</g>
<g id="Group 1000003222">
<path id="Vector" d="M33 46.2401C33.0205 46.3156 33.0411 46.3926 33.0616 46.4682C33.0733 46.4696 33.0836 46.471 33.0953 46.4724C33.1026 46.3982 33.11 46.3254 33.1158 46.2513C33.2228 45.1289 33.733 44.2683 34.8502 43.7911C34.9704 43.7394 35.0613 43.6302 35.1698 43.5518C35.2695 43.4805 35.3648 43.3937 35.4777 43.3475C36.4189 42.9599 37.3792 42.6115 38.3058 42.193C40.3378 41.2764 42.2246 40.1401 43.8886 38.6862C45.233 37.5107 46.466 36.2401 47.4805 34.7861C47.5025 34.7553 47.5333 34.7287 47.5993 34.6602C47.5861 34.8211 47.5626 34.9316 47.57 35.0422C47.6154 35.7013 47.6403 36.3632 47.7239 37.0181C48.0039 39.2235 48.5845 41.3632 49.3557 43.4553C50.1356 45.5712 51.1032 47.6045 52.3875 49.4908C52.9007 50.2451 53.4475 50.9784 54.0984 51.6333C54.1219 51.6571 54.138 51.6851 54.1659 51.7228C53.7994 51.6277 53.4534 51.5325 53.1044 51.4472C52.062 51.1953 51.0123 50.9924 49.9392 50.8902C48.888 50.7909 47.8412 50.7545 46.79 50.8342C46.2637 50.8734 45.7374 50.9266 45.211 50.97C45.0937 50.9798 45.0087 51.026 44.9853 51.1365C44.8944 51.5605 44.7917 51.9845 44.7258 52.4127C44.6818 52.7024 44.8152 52.9557 45.0204 53.1712C45.0248 53.1754 45.0278 53.1796 45.0336 53.1838C45.6201 53.57 45.6333 54.1158 45.5042 54.7049C45.4823 54.8071 45.4632 54.912 45.4603 55.0156C45.4559 55.364 45.5673 55.6551 45.9206 55.8188C46.0291 55.8692 46.1449 55.907 46.2534 55.9602C46.403 56.0343 46.5613 56.1029 46.6932 56.2009C47.0246 56.45 47.0949 56.6571 46.9263 57.0195C46.8047 57.2798 46.6625 57.5541 46.4572 57.7542C46.0496 58.1488 45.6039 58.5127 45.148 58.8569C44.7844 59.1312 44.3578 59.2557 43.8813 59.1676C43.6101 59.1172 43.4019 58.9745 43.2201 58.7911C42.8022 58.3685 42.5618 57.848 42.3419 57.319C41.6792 55.7265 41.2115 54.0794 40.848 52.4029C40.8113 52.2336 40.7629 52.0657 40.7145 51.8768C40.653 51.8838 40.5811 51.8796 40.5152 51.8992C39.9639 52.0587 39.4127 52.221 38.8629 52.3834C38.8394 52.3904 38.8174 52.4057 38.7954 52.4071C38.0345 52.4393 37.2883 52.7136 36.5083 52.4617C35.7079 52.2028 35.0613 51.7634 34.5511 51.1323C33.8489 50.2647 33.3621 49.3005 33.1745 48.2146C33.1246 47.9235 33.1671 47.6185 33.1671 47.3204H33.1188C33.0792 47.5275 33.0411 47.736 33.0015 47.9445C33.0015 47.3764 33.0015 46.8068 33.0015 46.2387L33 46.2401Z" fill="#508A95"/>
<path id="Vector_2" d="M48.9492 34.6406C48.9639 34.0094 49.0299 33.3545 49.1721 32.7038C49.2806 32.2084 49.8201 31.7718 50.493 31.9803C50.9607 32.1245 51.3639 32.361 51.7348 32.6562C52.5719 33.321 53.2155 34.1424 53.8049 35.0058C55.0467 36.8264 55.9908 38.7869 56.7972 40.8119C57.388 42.298 57.885 43.8135 58.209 45.371C58.3981 46.2793 58.5052 47.2028 58.6225 48.1222C58.7353 49.0067 58.6474 49.8827 58.3952 50.7405C58.2647 51.1855 58.0741 51.6137 57.7061 51.9272C57.5317 52.0755 57.2956 52.1637 57.0757 52.2532C57.0156 52.277 56.8939 52.2266 56.8338 52.1749C56.3119 51.7327 55.7665 51.31 55.2886 50.8272C54.2315 49.7567 53.4091 48.5253 52.676 47.235C52.5734 47.0545 52.5807 47.0699 52.7962 47.0293C52.9458 47.0013 53.0982 46.9342 53.2214 46.8488C54.0101 46.296 54.472 45.5418 54.6215 44.6294C54.8443 43.2692 54.4808 42.0671 53.4677 41.0665C52.8886 40.4942 52.1512 40.2353 51.3477 40.1122C50.8639 40.038 50.3831 39.9974 49.908 40.1597C49.8831 40.1681 49.8039 40.115 49.7966 40.08C49.6192 39.2935 49.4374 38.5071 49.2791 37.7164C49.0768 36.7117 48.9903 35.6957 48.9522 34.642L48.9492 34.6406Z" fill="#508A95"/>
<path id="Vector_3" d="M55.9922 32.792C55.9893 32.5121 56.1388 32.3078 56.3617 32.1469C56.715 31.8908 57.0727 31.6417 57.4305 31.3912C58.3688 30.7321 59.307 30.0702 60.2497 29.4167C60.4931 29.2488 60.7467 29.1326 61.0781 29.239C61.5208 29.3817 61.8874 30.0646 61.3845 30.5152C61.2701 30.6174 61.1426 30.7083 61.0165 30.7993C59.8612 31.6179 58.706 32.4366 57.5492 33.2538C57.4422 33.3294 57.3308 33.3993 57.2179 33.4679C56.9584 33.6232 56.6872 33.6372 56.4247 33.4917C56.1491 33.3392 55.9893 33.1097 55.9937 32.7934L55.9922 32.792Z" fill="#508A95"/>
<path id="Vector_4" d="M59.1012 37.0113C58.7288 36.9735 58.4239 36.7468 58.2934 36.3886C58.1937 36.1171 58.3081 35.7868 58.5793 35.5853C58.6643 35.5209 58.7596 35.4664 58.8564 35.4188C60.1583 34.7961 61.4616 34.1747 62.7664 33.5562C63.2825 33.3113 63.7296 33.4205 63.9584 33.8389C64.1753 34.2349 64.0492 34.6715 63.6329 34.8814C63.1403 35.1305 62.6359 35.3614 62.1375 35.6021C61.2871 36.0107 60.4368 36.4221 59.5836 36.828C59.4296 36.9007 59.261 36.9511 59.0997 37.0113H59.1012Z" fill="#508A95"/>
<path id="Vector_5" d="M63.9224 48.6822C63.1805 48.6822 62.4387 48.6878 61.6983 48.6808C61.2658 48.6766 60.8949 48.3281 60.8832 47.9391C60.87 47.4661 61.2116 47.1135 61.7086 47.1093C62.4138 47.1051 63.119 47.1093 63.8242 47.1205C64.6085 47.1331 65.3929 47.1498 66.1758 47.1778C66.5247 47.1904 66.7739 47.3626 66.9279 47.6718C67.1727 48.1602 66.7578 48.713 66.2373 48.7493C66.123 48.7577 66.0072 48.7591 65.8913 48.7591C65.2345 48.7591 64.5777 48.7591 63.9224 48.7591C63.9224 48.7339 63.9224 48.7088 63.9224 48.6836V48.6822Z" fill="#508A95"/>
<path id="Vector_6" d="M60.1523 39.9233C60.1523 39.6098 60.3532 39.3103 60.6845 39.2068C61.1625 39.0571 61.6492 38.9353 62.1316 38.8024C63.0977 38.5365 64.0624 38.2636 65.0315 38.0061C65.5373 37.8718 65.9141 38.0901 66.0885 38.5491C66.2131 38.8793 65.9067 39.3873 65.5153 39.4895C64.9479 39.6378 64.3849 39.7987 63.8205 39.9527C62.935 40.1934 62.0495 40.4382 61.161 40.6705C60.6537 40.8035 60.1538 40.4242 60.1523 39.9247V39.9233Z" fill="#508A95"/>
<path id="Vector_7" d="M61.9375 44.5315C61.508 44.5483 61.203 44.4364 61.03 44.1061C60.7632 43.5967 61.1004 43.0188 61.6971 42.9656C62.4404 42.8998 63.1866 42.8495 63.9314 42.7935C64.5369 42.7487 65.1424 42.7081 65.7479 42.6633C66.0044 42.6451 66.2434 42.6745 66.4399 42.8565C66.6759 43.0748 66.8005 43.3294 66.7038 43.6387C66.6011 43.9662 66.3548 44.1789 65.9986 44.2153C65.1776 44.2978 64.3536 44.3594 63.5312 44.4238C62.9799 44.4657 62.4287 44.4979 61.9375 44.5301V44.5315Z" fill="#508A95"/>
</g>
</g>
</svg>
