<svg width="525" height="350" viewBox="0 0 525 350" fill="none" xmlns="http://www.w3.org/2000/svg">
<path d="M265.076 169.085L265.097 169.092L265.09 169.071L265.076 169.078V169.085Z" fill="#F5F5F5"/>
<path d="M265.167 169.253L265.174 169.267L265.167 169.253Z" fill="#F5F5F5"/>
<path d="M265.209 169.162L265.216 169.184L265.231 169.155L265.209 169.162Z" fill="#F5F5F5"/>
<path d="M264.964 169.33L264.873 169.89L265.111 169.4L265.09 169.197L264.964 169.33Z" fill="#F5F5F5"/>
<path d="M265.181 169.162L265.195 169.176V169.162H265.181Z" fill="#F5F5F5"/>
<path d="M136.927 79.247L131.11 76.104L125.216 79.114L126.413 72.604L121.73 67.935L128.282 67.06L131.278 61.166L134.141 67.13L140.672 68.152L135.884 72.716L136.927 79.247Z" fill="#364163"/>
<path d="M305.242 45.15L299.425 42.007L293.531 45.017L294.728 38.507L290.045 33.838L296.597 32.963L299.593 27.062L302.456 33.026L308.987 34.055L304.199 38.619L305.242 45.15Z" fill="#364163"/>
<path d="M144.788 305.83L138.971 302.68L133.077 305.697L134.274 299.187L129.591 294.518L136.143 293.643L139.139 287.742L142.002 293.706L148.533 294.735L143.745 299.299L144.788 305.83Z" fill="#364163"/>
<path d="M393.75 303.429L387.926 300.279L382.039 303.289L383.229 296.786L378.546 292.117L385.105 291.242L388.101 285.341L390.957 291.305L397.495 292.334L392.7 296.891L393.75 303.429Z" fill="#364163"/>
<path d="M94.1151 83.937L91.0981 82.306L88.0461 83.867L88.6691 80.493L86.2401 78.071L89.6351 77.616L91.1891 74.564L92.6731 77.651L96.0541 78.183L93.576 80.549L94.1151 83.937Z" fill="#364163"/>
<path d="M176.743 319.963L173.726 318.332L170.674 319.893L171.29 316.519L168.861 314.097L172.263 313.642L173.817 310.59L175.294 313.684L178.682 314.209L176.197 316.575L176.743 319.963Z" fill="#364163"/>
<path d="M358.274 267.526L355.257 265.895L352.205 267.449L352.828 264.082L350.399 261.66L353.794 261.205L355.348 258.153L356.832 261.24L360.22 261.772L357.735 264.138L358.274 267.526Z" fill="#364163"/>
<path d="M430.479 82.5371L427.462 80.9061L424.41 82.4671L425.033 79.1001L422.604 76.6781L425.999 76.2231L427.553 73.1641L429.037 76.2581L432.425 76.7901L429.94 79.1561L430.479 82.5371Z" fill="#364163"/>
<path d="M468.26 102.556H348.119V269.548H468.26V102.556Z" fill="white"/>
<path d="M468.141 102.556H348V163.001H468.141V102.556Z" fill="#508A95"/>
<path d="M447.456 177.813C447.456 177.918 430.936 178.002 410.566 178.002C390.196 178.002 373.676 177.918 373.676 177.813C373.676 177.708 390.189 177.631 410.566 177.631C430.943 177.631 447.456 177.694 447.456 177.813Z" fill="#263238"/>
<path d="M447.456 194.074C447.456 194.172 430.936 194.256 410.566 194.256C390.196 194.256 373.676 194.172 373.676 194.074C373.676 193.976 390.189 193.892 410.566 193.892C430.943 193.892 447.456 193.976 447.456 194.074Z" fill="#263238"/>
<path d="M447.456 210.356C447.456 210.454 430.936 210.538 410.566 210.538C390.196 210.538 373.676 210.454 373.676 210.356C373.676 210.258 390.189 210.167 410.566 210.167C430.943 210.167 447.456 210.251 447.456 210.356Z" fill="#263238"/>
<path d="M447.148 229.123H374.985C367.887 229.123 362.133 234.877 362.133 241.975V243.312C362.133 250.41 367.887 256.164 374.985 256.164H447.148C454.246 256.164 460 250.41 460 243.312V241.975C460 234.877 454.246 229.123 447.148 229.123Z" fill="#508A95"/>
<path d="M372.162 153V143.2H376.95C378.182 143.2 379.106 143.433 379.722 143.9C380.347 144.367 380.66 144.983 380.66 145.748C380.66 146.261 380.534 146.709 380.282 147.092C380.03 147.465 379.685 147.755 379.246 147.96C378.807 148.165 378.303 148.268 377.734 148.268L378 147.694C378.616 147.694 379.162 147.797 379.638 148.002C380.114 148.198 380.483 148.492 380.744 148.884C381.015 149.276 381.15 149.757 381.15 150.326C381.15 151.166 380.819 151.824 380.156 152.3C379.493 152.767 378.518 153 377.23 153H372.162ZM374.416 151.292H377.062C377.65 151.292 378.093 151.199 378.392 151.012C378.7 150.816 378.854 150.508 378.854 150.088C378.854 149.677 378.7 149.374 378.392 149.178C378.093 148.973 377.65 148.87 377.062 148.87H374.248V147.218H376.67C377.221 147.218 377.641 147.125 377.93 146.938C378.229 146.742 378.378 146.448 378.378 146.056C378.378 145.673 378.229 145.389 377.93 145.202C377.641 145.006 377.221 144.908 376.67 144.908H374.416V151.292ZM387.221 153.168C385.83 153.168 384.743 152.781 383.959 152.006C383.175 151.231 382.783 150.125 382.783 148.688V143.2H385.051V148.604C385.051 149.537 385.242 150.209 385.625 150.62C386.008 151.031 386.544 151.236 387.235 151.236C387.926 151.236 388.462 151.031 388.845 150.62C389.228 150.209 389.419 149.537 389.419 148.604V143.2H391.659V148.688C391.659 150.125 391.267 151.231 390.483 152.006C389.699 152.781 388.612 153.168 387.221 153.168ZM397.12 153.168C396.336 153.168 395.585 153.065 394.866 152.86C394.148 152.645 393.569 152.37 393.13 152.034L393.9 150.326C394.32 150.625 394.815 150.872 395.384 151.068C395.963 151.255 396.546 151.348 397.134 151.348C397.582 151.348 397.942 151.306 398.212 151.222C398.492 151.129 398.698 151.003 398.828 150.844C398.959 150.685 399.024 150.503 399.024 150.298C399.024 150.037 398.922 149.831 398.716 149.682C398.511 149.523 398.24 149.397 397.904 149.304C397.568 149.201 397.195 149.108 396.784 149.024C396.383 148.931 395.977 148.819 395.566 148.688C395.165 148.557 394.796 148.389 394.46 148.184C394.124 147.979 393.849 147.708 393.634 147.372C393.429 147.036 393.326 146.607 393.326 146.084C393.326 145.524 393.476 145.015 393.774 144.558C394.082 144.091 394.54 143.723 395.146 143.452C395.762 143.172 396.532 143.032 397.456 143.032C398.072 143.032 398.679 143.107 399.276 143.256C399.874 143.396 400.401 143.611 400.858 143.9L400.158 145.622C399.701 145.361 399.244 145.169 398.786 145.048C398.329 144.917 397.881 144.852 397.442 144.852C397.004 144.852 396.644 144.903 396.364 145.006C396.084 145.109 395.884 145.244 395.762 145.412C395.641 145.571 395.58 145.757 395.58 145.972C395.58 146.224 395.683 146.429 395.888 146.588C396.094 146.737 396.364 146.859 396.7 146.952C397.036 147.045 397.405 147.139 397.806 147.232C398.217 147.325 398.623 147.433 399.024 147.554C399.435 147.675 399.808 147.839 400.144 148.044C400.48 148.249 400.751 148.52 400.956 148.856C401.171 149.192 401.278 149.617 401.278 150.13C401.278 150.681 401.124 151.185 400.816 151.642C400.508 152.099 400.046 152.468 399.43 152.748C398.824 153.028 398.054 153.168 397.12 153.168ZM402.828 153V143.2H405.096V153H402.828ZM407.422 153V143.2H409.298L415.08 150.256H414.17V143.2H416.41V153H414.548L408.752 145.944H409.662V153H407.422ZM420.814 147.148H425.532V148.912H420.814V147.148ZM420.982 151.18H426.316V153H418.728V143.2H426.134V145.02H420.982V151.18ZM431.341 153.168C430.557 153.168 429.806 153.065 429.087 152.86C428.368 152.645 427.79 152.37 427.351 152.034L428.121 150.326C428.541 150.625 429.036 150.872 429.605 151.068C430.184 151.255 430.767 151.348 431.355 151.348C431.803 151.348 432.162 151.306 432.433 151.222C432.713 151.129 432.918 151.003 433.049 150.844C433.18 150.685 433.245 150.503 433.245 150.298C433.245 150.037 433.142 149.831 432.937 149.682C432.732 149.523 432.461 149.397 432.125 149.304C431.789 149.201 431.416 149.108 431.005 149.024C430.604 148.931 430.198 148.819 429.787 148.688C429.386 148.557 429.017 148.389 428.681 148.184C428.345 147.979 428.07 147.708 427.855 147.372C427.65 147.036 427.547 146.607 427.547 146.084C427.547 145.524 427.696 145.015 427.995 144.558C428.303 144.091 428.76 143.723 429.367 143.452C429.983 143.172 430.753 143.032 431.677 143.032C432.293 143.032 432.9 143.107 433.497 143.256C434.094 143.396 434.622 143.611 435.079 143.9L434.379 145.622C433.922 145.361 433.464 145.169 433.007 145.048C432.55 144.917 432.102 144.852 431.663 144.852C431.224 144.852 430.865 144.903 430.585 145.006C430.305 145.109 430.104 145.244 429.983 145.412C429.862 145.571 429.801 145.757 429.801 145.972C429.801 146.224 429.904 146.429 430.109 146.588C430.314 146.737 430.585 146.859 430.921 146.952C431.257 147.045 431.626 147.139 432.027 147.232C432.438 147.325 432.844 147.433 433.245 147.554C433.656 147.675 434.029 147.839 434.365 148.044C434.701 148.249 434.972 148.52 435.177 148.856C435.392 149.192 435.499 149.617 435.499 150.13C435.499 150.681 435.345 151.185 435.037 151.642C434.729 152.099 434.267 152.468 433.651 152.748C433.044 153.028 432.274 153.168 431.341 153.168ZM440.269 153.168C439.485 153.168 438.733 153.065 438.015 152.86C437.296 152.645 436.717 152.37 436.279 152.034L437.049 150.326C437.469 150.625 437.963 150.872 438.533 151.068C439.111 151.255 439.695 151.348 440.283 151.348C440.731 151.348 441.09 151.306 441.361 151.222C441.641 151.129 441.846 151.003 441.977 150.844C442.107 150.685 442.173 150.503 442.173 150.298C442.173 150.037 442.07 149.831 441.865 149.682C441.659 149.523 441.389 149.397 441.053 149.304C440.717 149.201 440.343 149.108 439.933 149.024C439.531 148.931 439.125 148.819 438.715 148.688C438.313 148.557 437.945 148.389 437.609 148.184C437.273 147.979 436.997 147.708 436.783 147.372C436.577 147.036 436.475 146.607 436.475 146.084C436.475 145.524 436.624 145.015 436.923 144.558C437.231 144.091 437.688 143.723 438.295 143.452C438.911 143.172 439.681 143.032 440.605 143.032C441.221 143.032 441.827 143.107 442.425 143.256C443.022 143.396 443.549 143.611 444.007 143.9L443.307 145.622C442.849 145.361 442.392 145.169 441.935 145.048C441.477 144.917 441.029 144.852 440.591 144.852C440.152 144.852 439.793 144.903 439.513 145.006C439.233 145.109 439.032 145.244 438.911 145.412C438.789 145.571 438.729 145.757 438.729 145.972C438.729 146.224 438.831 146.429 439.037 146.588C439.242 146.737 439.513 146.859 439.849 146.952C440.185 147.045 440.553 147.139 440.955 147.232C441.365 147.325 441.771 147.433 442.173 147.554C442.583 147.675 442.957 147.839 443.293 148.044C443.629 148.249 443.899 148.52 444.105 148.856C444.319 149.192 444.427 149.617 444.427 150.13C444.427 150.681 444.273 151.185 443.965 151.642C443.657 152.099 443.195 152.468 442.579 152.748C441.972 153.028 441.202 153.168 440.269 153.168Z" fill="white"/>
<path d="M392.737 245.377C392.134 245.056 391.634 244.57 391.295 243.977C390.947 243.375 390.763 242.692 390.763 241.996C390.763 241.3 390.947 240.617 391.295 240.015C391.641 239.436 392.14 238.964 392.737 238.65C393.383 238.308 394.106 238.137 394.837 238.153C395.436 238.142 396.03 238.259 396.58 238.496C397.091 238.71 397.542 239.044 397.896 239.469L396.79 240.491C396.564 240.214 396.279 239.992 395.955 239.841C395.632 239.689 395.278 239.612 394.921 239.616C394.491 239.61 394.066 239.716 393.689 239.924C393.334 240.119 393.04 240.41 392.842 240.764C392.64 241.143 392.537 241.567 392.541 241.996C392.535 242.426 392.639 242.85 392.842 243.228C393.038 243.585 393.332 243.879 393.689 244.075C394.067 244.281 394.491 244.385 394.921 244.376C395.279 244.38 395.633 244.303 395.957 244.15C396.281 243.997 396.566 243.773 396.79 243.494L397.896 244.516C397.542 244.945 397.091 245.283 396.58 245.503C396.023 245.733 395.425 245.847 394.823 245.839C394.1 245.865 393.382 245.706 392.737 245.377Z" fill="white"/>
<path d="M404.084 240.582C404.317 240.835 404.496 241.134 404.609 241.459C404.723 241.784 404.768 242.129 404.742 242.472V245.713H403.083V242.696C403.111 242.336 403.007 241.977 402.789 241.688C402.678 241.573 402.544 241.484 402.395 241.426C402.247 241.368 402.087 241.343 401.928 241.352C401.744 241.343 401.559 241.372 401.387 241.439C401.214 241.505 401.058 241.607 400.927 241.737C400.659 242.06 400.526 242.474 400.556 242.892V245.692H398.897V237.866H400.556V240.624C400.783 240.401 401.055 240.229 401.354 240.12C401.679 240 402.023 239.94 402.369 239.945C402.683 239.93 402.997 239.979 403.292 240.088C403.586 240.198 403.856 240.366 404.084 240.582Z" fill="white"/>
<path d="M407.402 245.454C406.938 245.215 406.55 244.852 406.282 244.404C406.016 243.942 405.876 243.418 405.876 242.885C405.876 242.352 406.016 241.828 406.282 241.366C406.551 240.921 406.939 240.56 407.402 240.323C407.905 240.074 408.458 239.945 409.019 239.945C409.58 239.945 410.133 240.074 410.636 240.323C411.096 240.561 411.482 240.922 411.749 241.366C412.015 241.828 412.155 242.352 412.155 242.885C412.155 243.418 412.015 243.942 411.749 244.404C411.483 244.851 411.097 245.214 410.636 245.454C410.132 245.698 409.579 245.825 409.019 245.825C408.459 245.825 407.906 245.698 407.402 245.454ZM410.069 244.054C410.352 243.738 410.498 243.323 410.475 242.899C410.487 242.69 410.457 242.481 410.387 242.284C410.318 242.087 410.21 241.906 410.069 241.751C409.931 241.613 409.768 241.504 409.587 241.429C409.407 241.354 409.214 241.316 409.019 241.316C408.824 241.316 408.631 241.354 408.451 241.429C408.271 241.504 408.107 241.613 407.969 241.751C407.826 241.905 407.716 242.086 407.645 242.283C407.574 242.48 407.544 242.69 407.556 242.899C407.545 243.109 407.575 243.32 407.646 243.518C407.717 243.717 407.827 243.899 407.969 244.054C408.25 244.328 408.627 244.481 409.019 244.481C409.411 244.481 409.788 244.328 410.069 244.054Z" fill="white"/>
<path d="M414.346 245.454C413.883 245.214 413.496 244.85 413.226 244.404C412.965 243.941 412.828 243.417 412.828 242.885C412.828 242.353 412.965 241.83 413.226 241.366C413.495 240.921 413.883 240.56 414.346 240.323C414.848 240.066 415.406 239.937 415.97 239.945C416.53 239.935 417.083 240.065 417.58 240.323C418.043 240.56 418.431 240.921 418.7 241.366C418.961 241.83 419.099 242.353 419.099 242.885C419.099 243.417 418.961 243.941 418.7 244.404C418.43 244.85 418.043 245.214 417.58 245.454C417.082 245.707 416.529 245.834 415.97 245.825C415.407 245.834 414.85 245.707 414.346 245.454ZM417.013 244.054C417.298 243.739 417.446 243.324 417.426 242.899C417.437 242.69 417.406 242.481 417.335 242.284C417.264 242.087 417.154 241.906 417.013 241.751C416.879 241.61 416.717 241.499 416.537 241.424C416.358 241.35 416.165 241.313 415.97 241.317C415.774 241.312 415.58 241.348 415.399 241.423C415.218 241.498 415.055 241.609 414.92 241.751C414.776 241.904 414.665 242.085 414.592 242.282C414.52 242.479 414.489 242.689 414.5 242.899C414.489 243.11 414.521 243.321 414.593 243.519C414.665 243.717 414.777 243.899 414.92 244.054C415.056 244.195 415.219 244.305 415.4 244.379C415.581 244.452 415.775 244.487 415.97 244.481C416.166 244.485 416.361 244.448 416.542 244.372C416.723 244.296 416.886 244.183 417.02 244.04L417.013 244.054Z" fill="white"/>
<path d="M420.744 245.65C420.36 245.567 419.993 245.417 419.659 245.209L420.212 244.019C420.497 244.2 420.809 244.335 421.136 244.418C421.482 244.52 421.84 244.571 422.2 244.572C422.9 244.572 423.25 244.404 423.25 244.054C423.248 243.972 423.218 243.894 423.166 243.83C423.114 243.767 423.043 243.723 422.963 243.704C422.676 243.612 422.381 243.551 422.081 243.522C421.691 243.468 421.305 243.386 420.926 243.277C420.623 243.189 420.349 243.019 420.135 242.787C419.898 242.512 419.778 242.155 419.799 241.793C419.794 241.447 419.905 241.11 420.114 240.834C420.349 240.533 420.665 240.305 421.024 240.176C421.473 240.015 421.947 239.937 422.424 239.945C422.829 239.944 423.233 239.989 423.628 240.078C423.976 240.149 424.311 240.272 424.622 240.442L424.069 241.625C423.568 241.34 423.001 241.192 422.424 241.198C422.15 241.181 421.876 241.232 421.626 241.345C421.551 241.379 421.486 241.432 421.439 241.5C421.392 241.568 421.365 241.648 421.36 241.73C421.36 241.815 421.389 241.897 421.441 241.964C421.492 242.031 421.565 242.08 421.647 242.101C421.944 242.197 422.248 242.265 422.557 242.304C422.944 242.364 423.327 242.446 423.705 242.549C424.002 242.638 424.271 242.805 424.482 243.032C424.713 243.305 424.83 243.655 424.811 244.012C424.816 244.354 424.705 244.687 424.496 244.957C424.251 245.253 423.929 245.476 423.565 245.601C423.099 245.762 422.609 245.838 422.116 245.825C421.653 245.825 421.192 245.766 420.744 245.65Z" fill="white"/>
<path d="M431.412 243.354H427.093C427.161 243.695 427.359 243.997 427.646 244.194C427.967 244.408 428.346 244.516 428.731 244.502C429 244.504 429.268 244.459 429.522 244.369C429.76 244.273 429.977 244.13 430.159 243.949L431.041 244.901C430.742 245.22 430.376 245.468 429.969 245.628C429.562 245.788 429.125 245.855 428.689 245.825C428.096 245.836 427.509 245.709 426.974 245.454C426.5 245.22 426.102 244.856 425.826 244.404C425.565 243.942 425.427 243.42 425.427 242.889C425.427 242.358 425.565 241.835 425.826 241.373C426.087 240.929 426.465 240.566 426.918 240.323C427.394 240.081 427.921 239.956 428.455 239.956C428.989 239.956 429.515 240.081 429.991 240.323C430.439 240.56 430.81 240.919 431.062 241.359C431.327 241.839 431.459 242.38 431.447 242.927C431.447 242.927 431.44 243.074 431.412 243.354ZM427.541 241.513C427.279 241.735 427.112 242.048 427.072 242.388H429.872C429.831 242.05 429.663 241.74 429.403 241.52C429.142 241.304 428.811 241.189 428.472 241.198C428.134 241.187 427.803 241.299 427.541 241.513Z" fill="white"/>
<path d="M366.172 180.83C365.915 180.833 365.665 180.741 365.472 180.571L363.414 178.758C363.205 178.573 363.079 178.312 363.062 178.033C363.046 177.754 363.141 177.48 363.327 177.271C363.512 177.062 363.773 176.935 364.052 176.919C364.331 176.902 364.605 176.998 364.814 177.183L366.095 178.31L368.993 175.104C369.183 174.914 369.438 174.805 369.707 174.797C369.975 174.79 370.236 174.886 370.436 175.065C370.636 175.245 370.76 175.494 370.782 175.761C370.803 176.029 370.722 176.295 370.554 176.504L366.956 180.473C366.858 180.585 366.737 180.674 366.602 180.736C366.467 180.797 366.321 180.83 366.172 180.83Z" fill="#508A95"/>
<path d="M366.172 197.105C365.915 197.108 365.665 197.016 365.472 196.846L363.414 195.04C363.31 194.948 363.225 194.837 363.165 194.712C363.104 194.587 363.068 194.452 363.06 194.313C363.043 194.034 363.137 193.759 363.323 193.549C363.509 193.339 363.77 193.212 364.05 193.195C364.329 193.178 364.604 193.272 364.814 193.458L366.095 194.585L368.993 191.386C369.082 191.275 369.193 191.183 369.32 191.116C369.446 191.049 369.584 191.008 369.726 190.997C369.869 190.985 370.012 191.002 370.147 191.048C370.282 191.094 370.407 191.166 370.513 191.261C370.619 191.357 370.705 191.473 370.765 191.602C370.825 191.732 370.858 191.872 370.862 192.015C370.865 192.158 370.84 192.3 370.787 192.432C370.734 192.565 370.655 192.685 370.554 192.786L366.956 196.755C366.858 196.866 366.738 196.955 366.602 197.016C366.467 197.076 366.32 197.107 366.172 197.105Z" fill="#508A95"/>
<path d="M366.172 213.387C365.915 213.39 365.665 213.298 365.472 213.128L363.414 211.315C363.205 211.129 363.079 210.868 363.062 210.589C363.046 210.311 363.141 210.036 363.327 209.828C363.512 209.619 363.773 209.492 364.052 209.476C364.331 209.459 364.605 209.554 364.814 209.74L366.095 210.867L368.993 207.661C369.183 207.471 369.438 207.362 369.707 207.354C369.975 207.347 370.236 207.443 370.436 207.622C370.636 207.802 370.76 208.051 370.782 208.318C370.803 208.586 370.722 208.852 370.554 209.061L366.956 213.03C366.858 213.142 366.737 213.231 366.602 213.293C366.467 213.354 366.321 213.386 366.172 213.387Z" fill="#508A95"/>
<path d="M415.347 118.705L417.076 122.212L420.954 122.779L418.147 125.509L418.812 129.366L415.347 127.546L411.882 129.366L412.54 125.509L409.74 122.779L413.611 122.212L415.347 118.705Z" fill="white"/>
<path d="M401.732 118.705L403.468 122.212L407.339 122.779L404.539 125.509L405.197 129.366L401.732 127.546L398.267 129.366L398.932 125.509L396.125 122.779L400.003 122.212L401.732 118.705Z" fill="white"/>
<path d="M412.743 133.167L408.186 130.71L403.587 133.062L404.518 127.98L400.857 124.326L405.981 123.64L408.319 119.027L410.559 123.689L415.669 124.494L411.924 128.064L412.743 133.167Z" fill="white"/>
<path d="M399.954 124.018L405.708 123.255L408.333 118.082L410.839 123.311L416.572 124.214L412.372 128.211L413.289 133.944L408.186 131.186L403.02 133.825L404.063 128.12L399.954 124.018ZM414.766 124.774L410.279 124.074L408.312 119.972L406.254 124.025L401.746 124.613L404.959 127.819L404.147 132.313L408.193 130.213L412.19 132.376L411.49 127.889L414.766 124.774Z" fill="#508A95"/>
<path d="M468.246 269.548C468.246 268.078 468.176 201.263 468.078 102.556L468.246 102.724H348.119L348.301 102.542C348.301 165.024 348.301 222.837 348.301 269.534L348.154 269.387L468.295 269.534L348.154 269.681H348V269.534C348 222.837 348 165.024 348 102.542V102.36H348.196H468.323H468.484V102.521C468.323 201.263 468.246 268.113 468.246 269.548Z" fill="#263238"/>
<path d="M328.146 60.0881H162.799V289.905H328.146V60.0881Z" fill="white"/>
<path d="M328.347 60.0881H163V143.269H328.347V60.0881Z" fill="#364163"/>
<path d="M310.919 66.7522H281.533C277.172 66.7522 273.637 70.2874 273.637 74.6482V75.4672C273.637 79.828 277.172 83.3632 281.533 83.3632H310.919C315.28 83.3632 318.815 79.828 318.815 75.4672V74.6482C318.815 70.2874 315.28 66.7522 310.919 66.7522Z" fill="#508A95"/>
<path d="M299.516 163.639C299.516 163.737 276.78 163.821 248.752 163.821C220.724 163.821 197.974 163.737 197.974 163.639C197.974 163.541 220.703 163.457 248.752 163.457C276.801 163.457 299.516 163.534 299.516 163.639Z" fill="#263238"/>
<path d="M299.516 186.039C299.516 186.137 276.78 186.221 248.752 186.221C220.724 186.221 197.974 186.137 197.974 186.039C197.974 185.941 220.703 185.857 248.752 185.857C276.801 185.857 299.516 185.941 299.516 186.039Z" fill="#263238"/>
<path d="M299.516 208.446C299.516 208.544 276.78 208.628 248.752 208.628C220.724 208.628 197.974 208.544 197.974 208.446C197.974 208.348 220.703 208.264 248.752 208.264C276.801 208.264 299.516 208.341 299.516 208.446Z" fill="#263238"/>
<path d="M299.096 234.269H199.773C190.007 234.269 182.091 242.186 182.091 251.951V253.806C182.091 263.572 190.007 271.488 199.773 271.488H299.096C308.861 271.488 316.778 263.572 316.778 253.806V251.951C316.778 242.186 308.861 234.269 299.096 234.269Z" fill="#364163"/>
<path d="M188.162 130V120.2H192.404C193.281 120.2 194.037 120.345 194.672 120.634C195.307 120.914 195.797 121.32 196.142 121.852C196.487 122.384 196.66 123.019 196.66 123.756C196.66 124.484 196.487 125.114 196.142 125.646C195.797 126.178 195.307 126.589 194.672 126.878C194.037 127.158 193.281 127.298 192.404 127.298H189.422L190.43 126.276V130H188.162ZM190.43 126.528L189.422 125.45H192.278C192.978 125.45 193.501 125.301 193.846 125.002C194.191 124.703 194.364 124.288 194.364 123.756C194.364 123.215 194.191 122.795 193.846 122.496C193.501 122.197 192.978 122.048 192.278 122.048H189.422L190.43 120.97V126.528ZM198.279 130V120.2H202.521C203.399 120.2 204.155 120.345 204.789 120.634C205.424 120.914 205.914 121.32 206.259 121.852C206.605 122.384 206.777 123.019 206.777 123.756C206.777 124.484 206.605 125.114 206.259 125.646C205.914 126.169 205.424 126.57 204.789 126.85C204.155 127.13 203.399 127.27 202.521 127.27H199.539L200.547 126.276V130H198.279ZM204.509 130L202.059 126.444H204.481L206.959 130H204.509ZM200.547 126.528L199.539 125.464H202.395C203.095 125.464 203.618 125.315 203.963 125.016C204.309 124.708 204.481 124.288 204.481 123.756C204.481 123.215 204.309 122.795 203.963 122.496C203.618 122.197 203.095 122.048 202.395 122.048H199.539L200.547 120.97V126.528ZM213.334 130.168C212.56 130.168 211.841 130.042 211.178 129.79C210.525 129.538 209.956 129.183 209.47 128.726C208.994 128.269 208.621 127.732 208.35 127.116C208.089 126.5 207.958 125.828 207.958 125.1C207.958 124.372 208.089 123.7 208.35 123.084C208.621 122.468 208.999 121.931 209.484 121.474C209.97 121.017 210.539 120.662 211.192 120.41C211.846 120.158 212.555 120.032 213.32 120.032C214.095 120.032 214.804 120.158 215.448 120.41C216.102 120.662 216.666 121.017 217.142 121.474C217.628 121.931 218.006 122.468 218.276 123.084C218.547 123.691 218.682 124.363 218.682 125.1C218.682 125.828 218.547 126.505 218.276 127.13C218.006 127.746 217.628 128.283 217.142 128.74C216.666 129.188 216.102 129.538 215.448 129.79C214.804 130.042 214.1 130.168 213.334 130.168ZM213.32 128.236C213.759 128.236 214.16 128.161 214.524 128.012C214.898 127.863 215.224 127.648 215.504 127.368C215.784 127.088 215.999 126.757 216.148 126.374C216.307 125.991 216.386 125.567 216.386 125.1C216.386 124.633 216.307 124.209 216.148 123.826C215.999 123.443 215.784 123.112 215.504 122.832C215.234 122.552 214.912 122.337 214.538 122.188C214.165 122.039 213.759 121.964 213.32 121.964C212.882 121.964 212.476 122.039 212.102 122.188C211.738 122.337 211.416 122.552 211.136 122.832C210.856 123.112 210.637 123.443 210.478 123.826C210.329 124.209 210.254 124.633 210.254 125.1C210.254 125.557 210.329 125.982 210.478 126.374C210.637 126.757 210.852 127.088 211.122 127.368C211.402 127.648 211.729 127.863 212.102 128.012C212.476 128.161 212.882 128.236 213.32 128.236ZM222.487 124.61H227.191V126.43H222.487V124.61ZM222.655 130H220.387V120.2H227.793V122.02H222.655V130ZM231.414 124.148H236.132V125.912H231.414V124.148ZM231.582 128.18H236.916V130H229.328V120.2H236.734V122.02H231.582V128.18ZM241.941 130.168C241.157 130.168 240.405 130.065 239.687 129.86C238.968 129.645 238.389 129.37 237.951 129.034L238.721 127.326C239.141 127.625 239.635 127.872 240.205 128.068C240.783 128.255 241.367 128.348 241.955 128.348C242.403 128.348 242.762 128.306 243.033 128.222C243.313 128.129 243.518 128.003 243.649 127.844C243.779 127.685 243.845 127.503 243.845 127.298C243.845 127.037 243.742 126.831 243.537 126.682C243.331 126.523 243.061 126.397 242.725 126.304C242.389 126.201 242.015 126.108 241.605 126.024C241.203 125.931 240.797 125.819 240.387 125.688C239.985 125.557 239.617 125.389 239.281 125.184C238.945 124.979 238.669 124.708 238.455 124.372C238.249 124.036 238.147 123.607 238.147 123.084C238.147 122.524 238.296 122.015 238.595 121.558C238.903 121.091 239.36 120.723 239.967 120.452C240.583 120.172 241.353 120.032 242.277 120.032C242.893 120.032 243.499 120.107 244.097 120.256C244.694 120.396 245.221 120.611 245.679 120.9L244.979 122.622C244.521 122.361 244.064 122.169 243.607 122.048C243.149 121.917 242.701 121.852 242.263 121.852C241.824 121.852 241.465 121.903 241.185 122.006C240.905 122.109 240.704 122.244 240.583 122.412C240.461 122.571 240.401 122.757 240.401 122.972C240.401 123.224 240.503 123.429 240.709 123.588C240.914 123.737 241.185 123.859 241.521 123.952C241.857 124.045 242.225 124.139 242.627 124.232C243.037 124.325 243.443 124.433 243.845 124.554C244.255 124.675 244.629 124.839 244.965 125.044C245.301 125.249 245.571 125.52 245.777 125.856C245.991 126.192 246.099 126.617 246.099 127.13C246.099 127.681 245.945 128.185 245.637 128.642C245.329 129.099 244.867 129.468 244.251 129.748C243.644 130.028 242.874 130.168 241.941 130.168ZM250.868 130.168C250.084 130.168 249.333 130.065 248.614 129.86C247.896 129.645 247.317 129.37 246.878 129.034L247.648 127.326C248.068 127.625 248.563 127.872 249.132 128.068C249.711 128.255 250.294 128.348 250.882 128.348C251.33 128.348 251.69 128.306 251.96 128.222C252.24 128.129 252.446 128.003 252.576 127.844C252.707 127.685 252.772 127.503 252.772 127.298C252.772 127.037 252.67 126.831 252.464 126.682C252.259 126.523 251.988 126.397 251.652 126.304C251.316 126.201 250.943 126.108 250.532 126.024C250.131 125.931 249.725 125.819 249.314 125.688C248.913 125.557 248.544 125.389 248.208 125.184C247.872 124.979 247.597 124.708 247.382 124.372C247.177 124.036 247.074 123.607 247.074 123.084C247.074 122.524 247.224 122.015 247.522 121.558C247.83 121.091 248.288 120.723 248.894 120.452C249.51 120.172 250.28 120.032 251.204 120.032C251.82 120.032 252.427 120.107 253.024 120.256C253.622 120.396 254.149 120.611 254.606 120.9L253.906 122.622C253.449 122.361 252.992 122.169 252.534 122.048C252.077 121.917 251.629 121.852 251.19 121.852C250.752 121.852 250.392 121.903 250.112 122.006C249.832 122.109 249.632 122.244 249.51 122.412C249.389 122.571 249.328 122.757 249.328 122.972C249.328 123.224 249.431 123.429 249.636 123.588C249.842 123.737 250.112 123.859 250.448 123.952C250.784 124.045 251.153 124.139 251.554 124.232C251.965 124.325 252.371 124.433 252.772 124.554C253.183 124.675 253.556 124.839 253.892 125.044C254.228 125.249 254.499 125.52 254.704 125.856C254.919 126.192 255.026 126.617 255.026 127.13C255.026 127.681 254.872 128.185 254.564 128.642C254.256 129.099 253.794 129.468 253.178 129.748C252.572 130.028 251.802 130.168 250.868 130.168ZM256.576 130V120.2H258.844V130H256.576ZM265.93 130.168C265.155 130.168 264.437 130.042 263.774 129.79C263.121 129.538 262.551 129.183 262.066 128.726C261.59 128.269 261.217 127.732 260.946 127.116C260.685 126.5 260.554 125.828 260.554 125.1C260.554 124.372 260.685 123.7 260.946 123.084C261.217 122.468 261.595 121.931 262.08 121.474C262.565 121.017 263.135 120.662 263.788 120.41C264.441 120.158 265.151 120.032 265.916 120.032C266.691 120.032 267.4 120.158 268.044 120.41C268.697 120.662 269.262 121.017 269.738 121.474C270.223 121.931 270.601 122.468 270.872 123.084C271.143 123.691 271.278 124.363 271.278 125.1C271.278 125.828 271.143 126.505 270.872 127.13C270.601 127.746 270.223 128.283 269.738 128.74C269.262 129.188 268.697 129.538 268.044 129.79C267.4 130.042 266.695 130.168 265.93 130.168ZM265.916 128.236C266.355 128.236 266.756 128.161 267.12 128.012C267.493 127.863 267.82 127.648 268.1 127.368C268.38 127.088 268.595 126.757 268.744 126.374C268.903 125.991 268.982 125.567 268.982 125.1C268.982 124.633 268.903 124.209 268.744 123.826C268.595 123.443 268.38 123.112 268.1 122.832C267.829 122.552 267.507 122.337 267.134 122.188C266.761 122.039 266.355 121.964 265.916 121.964C265.477 121.964 265.071 122.039 264.698 122.188C264.334 122.337 264.012 122.552 263.732 122.832C263.452 123.112 263.233 123.443 263.074 123.826C262.925 124.209 262.85 124.633 262.85 125.1C262.85 125.557 262.925 125.982 263.074 126.374C263.233 126.757 263.447 127.088 263.718 127.368C263.998 127.648 264.325 127.863 264.698 128.012C265.071 128.161 265.477 128.236 265.916 128.236ZM272.982 130V120.2H274.858L280.64 127.256H279.73V120.2H281.97V130H280.108L274.312 122.944H275.222V130H272.982ZM283.001 130L287.369 120.2H289.609L293.991 130H291.611L288.027 121.348H288.923L285.325 130H283.001ZM285.185 127.9L285.787 126.178H290.827L291.443 127.9H285.185ZM295.008 130V120.2H297.276V128.152H302.19V130H295.008Z" fill="white"/>
<path d="M287.7 73.0941C287.903 73.1896 288.083 73.3263 288.23 73.4956C288.377 73.6648 288.487 73.8629 288.552 74.077C288.618 74.2911 288.639 74.5166 288.613 74.7391C288.586 74.9616 288.514 75.1762 288.4 75.3691C288.228 75.6199 287.984 75.8127 287.7 75.9221C287.378 76.0607 287.029 76.1276 286.678 76.1181H285.782V77.3431H284.753V72.8981H286.678C287.029 72.892 287.377 72.9588 287.7 73.0941ZM287.322 75.0821C287.403 75.0126 287.468 74.9254 287.51 74.8271C287.553 74.7288 287.572 74.622 287.567 74.5151C287.574 74.4058 287.556 74.2963 287.514 74.1954C287.471 74.0945 287.405 74.005 287.322 73.9341C287.118 73.7897 286.871 73.7204 286.622 73.7381H285.789V75.2781H286.622C286.864 75.2909 287.103 75.2219 287.301 75.0821H287.322Z" fill="white"/>
<path d="M289.898 77.1681C289.609 77.0323 289.366 76.8159 289.198 76.5451C289.038 76.2686 288.953 75.9547 288.953 75.6351C288.953 75.3155 289.038 75.0015 289.198 74.7251C289.368 74.456 289.611 74.2401 289.898 74.1021C290.199 73.9549 290.529 73.8784 290.864 73.8784C291.199 73.8784 291.529 73.9549 291.83 74.1021C292.04 74.2132 292.225 74.3655 292.374 74.5498C292.524 74.7341 292.634 74.9466 292.7 75.1747C292.765 75.4028 292.784 75.6417 292.754 75.8772C292.725 76.1126 292.649 76.3398 292.53 76.5451C292.36 76.8149 292.118 77.031 291.83 77.1681C291.529 77.3152 291.199 77.3917 290.864 77.3917C290.529 77.3917 290.199 77.3152 289.898 77.1681ZM291.487 76.3211C291.652 76.1253 291.743 75.8773 291.743 75.6211C291.743 75.3648 291.652 75.1169 291.487 74.9211C291.408 74.8358 291.311 74.7685 291.204 74.7238C291.096 74.6791 290.98 74.6581 290.864 74.6621C290.747 74.6584 290.63 74.6796 290.521 74.7242C290.413 74.7689 290.315 74.8359 290.234 74.9211C290.069 75.1169 289.978 75.3648 289.978 75.6211C289.978 75.8773 290.069 76.1253 290.234 76.3211C290.315 76.4062 290.413 76.4733 290.521 76.5179C290.63 76.5625 290.747 76.5837 290.864 76.5801C290.982 76.5815 291.099 76.5571 291.206 76.5088C291.314 76.4604 291.41 76.3892 291.487 76.3001V76.3211Z" fill="white"/>
<path d="M296.282 74.095C296.543 74.2365 296.757 74.4504 296.898 74.711C297.045 74.9967 297.122 75.3135 297.122 75.635C297.122 75.9565 297.045 76.2733 296.898 76.559C296.757 76.8196 296.543 77.0336 296.282 77.175C296.019 77.322 295.722 77.3968 295.421 77.392C295.23 77.4041 295.038 77.3734 294.86 77.3019C294.682 77.2305 294.522 77.1201 294.392 76.979V78.575H293.398V73.927H294.343V74.319C294.477 74.1681 294.644 74.0499 294.831 73.9735C295.018 73.8971 295.22 73.8644 295.421 73.878C295.722 73.8732 296.019 73.948 296.282 74.095ZM295.869 76.321C296.034 76.1252 296.125 75.8773 296.125 75.621C296.125 75.3648 296.034 75.1168 295.869 74.921C295.704 74.756 295.48 74.6633 295.246 74.6633C295.012 74.6633 294.788 74.756 294.623 74.921C294.458 75.1168 294.367 75.3648 294.367 75.621C294.367 75.8773 294.458 76.1252 294.623 76.321C294.788 76.486 295.012 76.5787 295.246 76.5787C295.48 76.5787 295.704 76.486 295.869 76.321Z" fill="white"/>
<path d="M301.224 73.9272V77.3432H300.3V76.9372C300.17 77.084 300.01 77.201 299.831 77.2802C299.645 77.3569 299.445 77.395 299.243 77.3922C299.048 77.4024 298.853 77.3736 298.669 77.3075C298.485 77.2414 298.316 77.1393 298.172 77.0072C298.033 76.8517 297.927 76.67 297.86 76.4728C297.793 76.2756 297.766 76.067 297.78 75.8592V73.9272H298.774V75.7122C298.774 76.2652 299.005 76.5382 299.474 76.5382C299.58 76.5422 299.685 76.5237 299.783 76.4839C299.88 76.444 299.968 76.3838 300.041 76.3072C300.203 76.1114 300.281 75.8599 300.258 75.6072V73.9202L301.224 73.9272Z" fill="white"/>
<path d="M302.141 72.6321H303.135V77.3431H302.141V72.6321Z" fill="white"/>
<path d="M306.649 74.256C306.802 74.4017 306.919 74.58 306.993 74.7776C307.067 74.9752 307.095 75.1869 307.076 75.397V77.343H306.152V76.916C306.038 77.0831 305.881 77.2158 305.697 77.2997C305.513 77.3836 305.31 77.4155 305.109 77.392C304.869 77.4007 304.629 77.3553 304.409 77.259C304.231 77.1814 304.078 77.0553 303.968 76.895C303.867 76.7335 303.813 76.5466 303.814 76.356C303.81 76.2111 303.841 76.0674 303.905 75.937C303.968 75.8067 304.062 75.6935 304.178 75.607C304.508 75.4004 304.896 75.3048 305.284 75.334H306.068C306.073 75.2419 306.058 75.1498 306.025 75.0639C305.991 74.9781 305.939 74.9007 305.872 74.837C305.703 74.7102 305.495 74.6481 305.284 74.662C305.1 74.661 304.918 74.6917 304.745 74.753C304.583 74.8023 304.431 74.8805 304.297 74.984L303.947 74.284C304.15 74.1442 304.374 74.0401 304.612 73.976C304.875 73.9059 305.145 73.8706 305.417 73.871C305.862 73.8391 306.302 73.9766 306.649 74.256ZM305.809 76.608C305.939 76.5315 306.037 76.4092 306.082 76.265V75.915H305.382C304.976 75.915 304.773 76.048 304.773 76.314C304.771 76.3732 304.783 76.432 304.81 76.4848C304.837 76.5375 304.878 76.5824 304.927 76.615C305.046 76.6973 305.189 76.7368 305.333 76.727C305.5 76.736 305.666 76.6945 305.809 76.608Z" fill="white"/>
<path d="M309.4 74.004C309.623 73.9162 309.861 73.8734 310.1 73.878V74.788H309.876C309.755 74.781 309.633 74.7984 309.519 74.8393C309.405 74.8802 309.3 74.9437 309.211 75.026C309.125 75.1202 309.059 75.2307 309.017 75.351C308.975 75.4713 308.957 75.5989 308.966 75.726V77.336H308V73.92H308.945V74.368C309.063 74.2094 309.219 74.0839 309.4 74.004Z" fill="white"/>
<path d="M224.203 256.648C223.381 256.213 222.696 255.559 222.222 254.758C221.745 253.929 221.494 252.988 221.494 252.032C221.494 251.075 221.745 250.134 222.222 249.305C222.698 248.508 223.383 247.857 224.203 247.422C225.012 247.014 225.9 246.784 226.805 246.748C227.711 246.712 228.614 246.87 229.453 247.212C230.153 247.51 230.773 247.971 231.259 248.556L229.74 249.956C229.428 249.576 229.034 249.272 228.588 249.064C228.142 248.857 227.656 248.753 227.164 248.759C226.572 248.749 225.988 248.894 225.47 249.179C224.98 249.448 224.577 249.851 224.308 250.341C224.037 250.864 223.895 251.445 223.895 252.035C223.895 252.625 224.037 253.206 224.308 253.729C224.579 254.217 224.982 254.62 225.47 254.891C225.989 255.174 226.573 255.316 227.164 255.304C227.657 255.312 228.145 255.207 228.591 254.999C229.037 254.79 229.43 254.483 229.74 254.1L231.259 255.5C230.772 256.091 230.15 256.557 229.446 256.858C228.681 257.177 227.86 257.337 227.031 257.327C226.047 257.338 225.075 257.105 224.203 256.648Z" fill="white"/>
<path d="M239.827 250.047C240.148 250.396 240.394 250.807 240.549 251.255C240.705 251.703 240.766 252.178 240.73 252.651V257.152H238.448V253.001C238.484 252.501 238.34 252.004 238.042 251.601C237.889 251.442 237.704 251.318 237.498 251.238C237.293 251.158 237.072 251.125 236.852 251.139C236.594 251.124 236.335 251.164 236.094 251.257C235.852 251.35 235.633 251.493 235.452 251.678C235.081 252.118 234.898 252.686 234.941 253.26V257.152H232.659V246.302H234.941V250.103C235.252 249.792 235.627 249.553 236.04 249.403C236.489 249.24 236.963 249.159 237.44 249.165C237.877 249.142 238.314 249.208 238.725 249.36C239.135 249.511 239.51 249.745 239.827 250.047Z" fill="white"/>
<path d="M244.391 256.746C243.751 256.42 243.215 255.92 242.844 255.304C242.467 254.67 242.275 253.942 242.291 253.204C242.277 252.466 242.469 251.739 242.844 251.104C243.217 250.492 243.753 249.995 244.391 249.669C245.079 249.314 245.844 249.136 246.617 249.151C247.388 249.135 248.151 249.314 248.836 249.669C249.472 249.995 250.006 250.492 250.376 251.104C250.751 251.739 250.943 252.466 250.929 253.204C250.945 253.942 250.753 254.67 250.376 255.304C250.008 255.919 249.474 256.419 248.836 256.746C248.151 257.102 247.388 257.28 246.617 257.264C245.844 257.279 245.079 257.101 244.391 256.746ZM248.059 254.807C248.421 254.357 248.619 253.796 248.619 253.218C248.619 252.64 248.421 252.079 248.059 251.629C247.873 251.435 247.649 251.283 247.401 251.182C247.152 251.08 246.885 251.032 246.617 251.041C246.348 251.034 246.08 251.082 245.831 251.183C245.581 251.284 245.356 251.436 245.168 251.629C244.802 252.078 244.602 252.639 244.602 253.218C244.602 253.797 244.802 254.358 245.168 254.807C245.356 255 245.581 255.152 245.831 255.253C246.08 255.354 246.348 255.403 246.617 255.395C246.886 255.403 247.153 255.354 247.401 255.251C247.65 255.149 247.874 254.995 248.059 254.8V254.807Z" fill="white"/>
<path d="M253.96 256.746C253.322 256.419 252.788 255.919 252.42 255.304C252.043 254.67 251.851 253.942 251.867 253.204C251.853 252.466 252.045 251.739 252.42 251.104C252.79 250.492 253.324 249.995 253.96 249.669C254.656 249.329 255.426 249.168 256.2 249.2C256.971 249.184 257.734 249.362 258.419 249.718C259.052 250.047 259.582 250.543 259.952 251.153C260.327 251.788 260.519 252.515 260.505 253.253C260.521 253.991 260.329 254.719 259.952 255.353C259.585 255.967 259.054 256.466 258.419 256.795C257.734 257.151 256.971 257.329 256.2 257.313C255.418 257.315 254.647 257.12 253.96 256.746ZM257.6 254.8C257.966 254.351 258.166 253.79 258.166 253.211C258.166 252.632 257.966 252.071 257.6 251.622C257.416 251.428 257.193 251.276 256.945 251.175C256.698 251.073 256.432 251.025 256.165 251.034C255.896 251.025 255.628 251.073 255.378 251.174C255.129 251.276 254.903 251.428 254.716 251.622C254.345 252.068 254.142 252.631 254.142 253.211C254.142 253.792 254.345 254.354 254.716 254.8C254.903 254.994 255.129 255.146 255.378 255.248C255.628 255.349 255.896 255.397 256.165 255.388C256.432 255.397 256.698 255.349 256.945 255.247C257.193 255.146 257.416 254.994 257.6 254.8Z" fill="white"/>
<path d="M262.752 257.026C262.225 256.905 261.722 256.699 261.261 256.417L262.024 254.779C262.417 255.025 262.844 255.211 263.291 255.332C263.767 255.469 264.259 255.54 264.754 255.542C265.72 255.542 266.203 255.309 266.203 254.842C266.2 254.729 266.158 254.62 266.086 254.532C266.014 254.445 265.915 254.384 265.804 254.359C265.413 254.23 265.009 254.143 264.6 254.1C264.061 254.024 263.528 253.912 263.004 253.764C262.587 253.63 262.213 253.389 261.919 253.064C261.753 252.873 261.626 252.651 261.547 252.411C261.468 252.17 261.437 251.916 261.457 251.664C261.451 251.187 261.604 250.722 261.891 250.341C262.215 249.929 262.649 249.618 263.144 249.445C263.769 249.217 264.432 249.108 265.097 249.123C265.655 249.121 266.212 249.182 266.756 249.305C267.236 249.396 267.697 249.567 268.121 249.809L267.365 251.433C266.674 251.041 265.892 250.839 265.097 250.845C264.72 250.824 264.343 250.893 263.998 251.048C263.895 251.094 263.807 251.167 263.743 251.26C263.678 251.352 263.641 251.461 263.634 251.573C263.632 251.691 263.671 251.806 263.744 251.899C263.816 251.992 263.918 252.057 264.033 252.084C264.44 252.219 264.86 252.312 265.286 252.364C265.82 252.447 266.348 252.562 266.868 252.707C267.275 252.831 267.642 253.06 267.932 253.372C268.252 253.744 268.416 254.226 268.387 254.716C268.39 255.187 268.235 255.646 267.946 256.018C267.611 256.427 267.167 256.733 266.665 256.9C266.026 257.123 265.353 257.229 264.677 257.215C264.03 257.234 263.383 257.171 262.752 257.026Z" fill="white"/>
<path d="M277.438 253.862H271.495C271.59 254.33 271.86 254.743 272.251 255.017C272.692 255.309 273.213 255.456 273.742 255.437C274.114 255.446 274.485 255.384 274.834 255.255C275.163 255.124 275.463 254.929 275.716 254.681L276.927 255.997C276.514 256.434 276.009 256.775 275.449 256.994C274.888 257.213 274.286 257.305 273.686 257.264C272.87 257.282 272.061 257.105 271.327 256.746C270.675 256.426 270.128 255.926 269.752 255.304C269.375 254.67 269.183 253.942 269.199 253.204C269.187 252.467 269.376 251.741 269.745 251.104C270.103 250.493 270.624 249.994 271.25 249.662C271.908 249.309 272.645 249.131 273.392 249.144C274.123 249.129 274.845 249.3 275.492 249.641C276.106 249.957 276.617 250.443 276.962 251.041C277.328 251.7 277.511 252.444 277.494 253.197C277.494 253.197 277.466 253.484 277.438 253.862ZM272.104 251.335C271.745 251.637 271.514 252.065 271.46 252.532H275.338C275.279 252.067 275.048 251.641 274.69 251.338C274.333 251.035 273.874 250.876 273.406 250.894C272.933 250.878 272.47 251.035 272.104 251.335Z" fill="white"/>
<path d="M187.649 167.419C187.391 167.421 187.141 167.326 186.949 167.153L184.149 164.668C184.044 164.578 183.958 164.467 183.897 164.343C183.835 164.22 183.798 164.085 183.789 163.947C183.78 163.808 183.798 163.67 183.843 163.539C183.888 163.408 183.959 163.287 184.051 163.184C184.236 162.988 184.489 162.87 184.759 162.854C185.028 162.838 185.293 162.926 185.5 163.1L187.551 164.906L191.8 160.216C191.99 160.026 192.245 159.917 192.514 159.909C192.782 159.902 193.043 159.998 193.243 160.177C193.443 160.357 193.567 160.606 193.589 160.873C193.61 161.141 193.529 161.407 193.361 161.616L188.412 167.076C188.315 167.183 188.198 167.268 188.066 167.327C187.935 167.386 187.793 167.418 187.649 167.419Z" fill="#364163"/>
<path d="M187.649 189.819C187.391 189.823 187.142 189.731 186.949 189.56L184.149 187.068C184.046 186.976 183.961 186.865 183.901 186.74C183.841 186.616 183.805 186.481 183.797 186.342C183.789 186.204 183.808 186.066 183.854 185.935C183.899 185.804 183.97 185.684 184.061 185.581C184.153 185.477 184.265 185.393 184.389 185.332C184.514 185.272 184.649 185.237 184.787 185.229C185.066 185.212 185.34 185.307 185.549 185.493L187.6 187.299L191.849 182.602C192.039 182.412 192.294 182.303 192.563 182.295C192.831 182.288 193.092 182.384 193.292 182.563C193.492 182.743 193.616 182.992 193.637 183.259C193.659 183.527 193.578 183.793 193.41 184.002L188.461 189.462C188.361 189.578 188.236 189.67 188.095 189.732C187.955 189.794 187.802 189.823 187.649 189.819Z" fill="#364163"/>
<path d="M187.649 212.226C187.391 212.228 187.141 212.133 186.949 211.96L184.149 209.475C184.046 209.383 183.961 209.272 183.901 209.147C183.841 209.023 183.805 208.887 183.797 208.749C183.789 208.611 183.808 208.473 183.854 208.342C183.899 208.211 183.97 208.091 184.061 207.988C184.153 207.884 184.265 207.8 184.389 207.739C184.514 207.679 184.649 207.644 184.787 207.636C185.066 207.619 185.34 207.714 185.549 207.9L187.6 209.699L191.849 205.009C192.039 204.819 192.294 204.709 192.563 204.702C192.831 204.695 193.092 204.791 193.292 204.97C193.492 205.15 193.616 205.399 193.637 205.666C193.659 205.934 193.578 206.2 193.41 206.409L188.461 211.869C188.36 211.985 188.235 212.076 188.095 212.138C187.954 212.2 187.802 212.23 187.649 212.226Z" fill="#364163"/>
<path d="M256.606 85.071L259.413 90.755L265.685 91.665L261.149 96.0891L262.22 102.333L256.606 99.386L250.999 102.333L252.07 96.0891L247.534 91.665L253.806 90.755L256.606 85.071Z" fill="white"/>
<path d="M245.707 85.071L249.417 92.582L257.705 93.786L251.706 99.631L253.12 107.884L245.707 103.985L238.301 107.884L239.715 99.631L233.716 93.786L242.004 92.582L245.707 85.071Z" fill="white"/>
<path d="M254.023 109.123L245.7 104.755L237.384 109.123L238.973 99.8691L232.246 93.3101L241.542 91.9591L245.7 83.5591L249.851 91.9591L259.147 93.3101L252.42 99.8621L254.023 109.123ZM235.2 94.2551L240.464 99.3931L239.218 106.645L245.735 103.215L252.245 106.645L250.978 99.4001L256.242 94.2621L248.962 93.2051L245.7 86.6041L242.438 93.1981L235.2 94.2551Z" fill="#364163"/>
<path d="M328.146 289.912C328.146 288.442 328.076 195.965 327.978 60.0881L328.146 60.2561H162.82L163.002 60.0741C163.002 146.069 163.002 225.631 162.967 289.898L162.82 289.751L328.167 289.898L162.82 290.045H162.673V289.898C162.673 225.631 162.673 146.069 162.638 60.0741V59.8921H162.841H328.167H328.3V60.0531C328.209 196 328.146 288.442 328.146 289.912Z" fill="#263238"/>
<path d="M142.527 102.543H22.386V269.535H142.527V102.543Z" fill="white"/>
<path d="M142.141 102.543H22.0001V162.988H142.141V102.543Z" fill="#508A95"/>
<path d="M121.73 177.8C121.73 177.905 105.21 177.989 84.84 177.989C64.47 177.989 47.95 177.905 47.95 177.8C47.95 177.695 64.463 177.618 84.84 177.618C105.217 177.618 121.73 177.681 121.73 177.8Z" fill="#263238"/>
<path d="M121.73 194.061C121.73 194.159 105.21 194.243 84.84 194.243C64.47 194.243 47.95 194.159 47.95 194.061C47.95 193.963 64.463 193.879 84.84 193.879C105.217 193.879 121.73 193.963 121.73 194.061Z" fill="#263238"/>
<path d="M121.73 210.343C121.73 210.441 105.21 210.525 84.84 210.525C64.47 210.525 47.95 210.441 47.95 210.343C47.95 210.245 64.463 210.154 84.84 210.154C105.217 210.154 121.73 210.238 121.73 210.343Z" fill="#263238"/>
<path d="M121.422 229.11H49.259C42.1611 229.11 36.407 234.864 36.407 241.962V243.299C36.407 250.397 42.1611 256.151 49.259 256.151H121.422C128.52 256.151 134.274 250.397 134.274 243.299V241.962C134.274 234.864 128.52 229.11 121.422 229.11Z" fill="#508A95"/>
<path d="M37.98 153V143.2H40.752V153H37.98ZM42.7241 153V143.2H45.0061L50.4101 149.724H49.3321V143.2H52.0481V153H49.7661L44.3621 146.476H45.4401V153H42.7241ZM54.0034 153V143.2H58.6374C59.7201 143.2 60.6721 143.401 61.4934 143.802C62.3147 144.203 62.9541 144.768 63.4114 145.496C63.8781 146.224 64.1114 147.092 64.1114 148.1C64.1114 149.099 63.8781 149.967 63.4114 150.704C62.9541 151.432 62.3147 151.997 61.4934 152.398C60.6721 152.799 59.7201 153 58.6374 153H54.0034ZM56.7754 150.788H58.5254C59.0854 150.788 59.5707 150.685 59.9814 150.48C60.4014 150.265 60.7281 149.957 60.9614 149.556C61.1947 149.145 61.3114 148.66 61.3114 148.1C61.3114 147.531 61.1947 147.045 60.9614 146.644C60.7281 146.243 60.4014 145.939 59.9814 145.734C59.5707 145.519 59.0854 145.412 58.5254 145.412H56.7754V150.788ZM65.5698 153V143.2H68.3418V153H65.5698ZM73.2966 153L69.1106 143.2H72.1066L75.6346 151.684H73.8706L77.4826 143.2H80.2266L76.0266 153H73.2966ZM80.8003 153V143.2H83.5723V153H80.8003ZM85.5444 153V143.2H90.1784C91.2611 143.2 92.2131 143.401 93.0344 143.802C93.8558 144.203 94.4951 144.768 94.9524 145.496C95.4191 146.224 95.6524 147.092 95.6524 148.1C95.6524 149.099 95.4191 149.967 94.9524 150.704C94.4951 151.432 93.8558 151.997 93.0344 152.398C92.2131 152.799 91.2611 153 90.1784 153H85.5444ZM88.3164 150.788H90.0664C90.6264 150.788 91.1118 150.685 91.5224 150.48C91.9424 150.265 92.2691 149.957 92.5024 149.556C92.7358 149.145 92.8524 148.66 92.8524 148.1C92.8524 147.531 92.7358 147.045 92.5024 146.644C92.2691 146.243 91.9424 145.939 91.5224 145.734C91.1118 145.519 90.6264 145.412 90.0664 145.412H88.3164V150.788ZM101.633 153.196C100.186 153.196 99.0568 152.799 98.2448 152.006C97.4328 151.213 97.0268 150.088 97.0268 148.632V143.2H99.7988V148.548C99.7988 149.388 99.9622 149.99 100.289 150.354C100.625 150.718 101.082 150.9 101.661 150.9C102.239 150.9 102.692 150.718 103.019 150.354C103.345 149.99 103.509 149.388 103.509 148.548V143.2H106.239V148.632C106.239 150.088 105.833 151.213 105.021 152.006C104.209 152.799 103.079 153.196 101.633 153.196ZM106.736 153L111.062 143.2H113.792L118.132 153H115.248L111.86 144.558H112.952L109.564 153H106.736ZM109.102 151.096L109.816 149.052H114.604L115.318 151.096H109.102ZM118.917 153V143.2H121.689V150.802H126.365V153H118.917Z" fill="white"/>
<path d="M67.004 245.364C66.4025 245.04 65.9032 244.556 65.562 243.964C65.2176 243.361 65.0365 242.678 65.0365 241.983C65.0365 241.288 65.2176 240.606 65.562 240.002C65.9184 239.448 66.4162 238.998 67.004 238.7C67.5914 238.402 68.2363 238.234 68.8947 238.207C69.553 238.181 70.2093 238.296 70.8189 238.546C71.3258 238.763 71.7743 239.096 72.128 239.519L71.0219 240.541C70.7975 240.265 70.5133 240.043 70.1907 239.893C69.8682 239.743 69.5158 239.668 69.16 239.673C68.73 239.664 68.3051 239.767 67.928 239.974C67.5727 240.169 67.2793 240.46 67.081 240.814C66.876 241.192 66.7724 241.616 66.78 242.046C66.7704 242.476 66.8742 242.901 67.081 243.278C67.2746 243.619 67.5578 243.899 67.9 244.09C68.2771 244.297 68.702 244.401 69.132 244.391C69.489 244.396 69.8423 244.318 70.165 244.166C70.4877 244.013 70.7712 243.788 70.9939 243.509L72.1 244.531C71.75 244.964 71.2978 245.303 70.784 245.518C70.2296 245.748 69.6341 245.862 69.034 245.854C68.3273 245.86 67.63 245.692 67.004 245.364Z" fill="white"/>
<path d="M78.3579 240.569C78.5886 240.824 78.7652 241.122 78.8771 241.447C78.989 241.772 79.0338 242.116 79.0089 242.459V245.7H77.3569V242.683C77.383 242.322 77.276 241.963 77.0559 241.675C76.946 241.559 76.8118 241.469 76.663 241.411C76.5141 241.353 76.3543 241.328 76.1949 241.339C76.0115 241.33 75.8282 241.359 75.6569 241.426C75.4857 241.492 75.3303 241.594 75.2009 241.724C74.9294 242.045 74.796 242.46 74.8299 242.879V245.679H73.1709V237.853H74.8299V240.611C75.0485 240.389 75.3107 240.215 75.5999 240.1C75.927 239.98 76.2734 239.92 76.6219 239.925C76.9399 239.909 77.2579 239.957 77.5564 240.068C77.8549 240.179 78.1276 240.349 78.3579 240.569Z" fill="white"/>
<path d="M81.669 245.441C81.2064 245.2 80.8189 244.837 80.549 244.391C80.2877 243.927 80.1505 243.404 80.1505 242.872C80.1505 242.34 80.2877 241.817 80.549 241.353C80.8213 240.911 81.2083 240.55 81.669 240.31C82.1713 240.053 82.7289 239.923 83.293 239.932C83.8527 239.923 84.406 240.053 84.903 240.31C85.3634 240.548 85.7487 240.909 86.016 241.353C86.282 241.815 86.4219 242.339 86.4219 242.872C86.4219 243.405 86.282 243.929 86.016 244.391C85.7497 244.838 85.3643 245.201 84.903 245.441C84.4054 245.696 83.8521 245.824 83.293 245.812C82.7295 245.823 82.1718 245.696 81.669 245.441ZM84.336 244.041C84.6188 243.725 84.7648 243.31 84.742 242.886C84.7531 242.677 84.723 242.469 84.6533 242.272C84.5837 242.075 84.4758 241.893 84.336 241.738C84.2018 241.597 84.0398 241.486 83.8602 241.411C83.6806 241.337 83.4875 241.3 83.293 241.304C83.0962 241.298 82.9003 241.334 82.7182 241.408C82.5361 241.483 82.3718 241.596 82.236 241.738C82.0949 241.893 81.9858 242.074 81.9149 242.271C81.8441 242.468 81.8128 242.677 81.823 242.886C81.8029 243.311 81.9513 243.726 82.236 244.041C82.3724 244.182 82.537 244.294 82.7191 244.367C82.9012 244.441 83.0967 244.475 83.293 244.468C83.488 244.471 83.6815 244.434 83.8611 244.358C84.0407 244.282 84.2024 244.169 84.336 244.027V244.041Z" fill="white"/>
<path d="M88.6269 245.441C88.1631 245.202 87.7752 244.838 87.5069 244.391C87.2983 244.053 87.1615 243.676 87.105 243.283C87.0485 242.89 87.0736 242.49 87.1787 242.107C87.2838 241.724 87.4666 241.367 87.7158 241.058C87.9649 240.748 88.2751 240.494 88.6269 240.31C89.1297 240.061 89.683 239.932 90.2439 239.932C90.8048 239.932 91.3582 240.061 91.8609 240.31C92.3213 240.548 92.7066 240.909 92.9739 241.353C93.2399 241.815 93.3799 242.339 93.3799 242.872C93.3799 243.405 93.2399 243.929 92.9739 244.391C92.7076 244.837 92.3222 245.201 91.8609 245.441C91.3568 245.685 90.804 245.812 90.2439 245.812C89.6838 245.812 89.131 245.685 88.6269 245.441ZM91.2939 244.041C91.5733 243.728 91.719 243.319 91.6999 242.9C91.7111 242.691 91.6809 242.482 91.6113 242.285C91.5416 242.089 91.4338 241.907 91.2939 241.752C91.159 241.61 90.9958 241.498 90.8149 241.424C90.6341 241.349 90.4396 241.313 90.2439 241.318C90.0483 241.313 89.8538 241.349 89.6729 241.424C89.4921 241.498 89.3289 241.61 89.1939 241.752C89.0529 241.907 88.9437 242.088 88.8729 242.285C88.802 242.482 88.7707 242.691 88.7809 242.9C88.7608 243.324 88.9093 243.74 89.1939 244.055C89.3295 244.195 89.493 244.306 89.6738 244.379C89.8546 244.453 90.0488 244.488 90.2439 244.482C90.4411 244.484 90.6366 244.445 90.8175 244.367C90.9985 244.288 91.1608 244.172 91.2939 244.027V244.041Z" fill="white"/>
<path d="M95.0109 245.637C94.6288 245.554 94.2641 245.404 93.933 245.196L94.4859 244.013C94.7722 244.19 95.0838 244.322 95.41 244.405C95.7531 244.507 96.1091 244.558 96.4669 244.559C97.1669 244.559 97.5169 244.391 97.5169 244.041C97.5156 243.959 97.4866 243.88 97.4345 243.816C97.3824 243.753 97.3103 243.708 97.2299 243.691C96.9456 243.599 96.6523 243.538 96.3549 243.509C95.9619 243.457 95.5734 243.376 95.193 243.264C94.8922 243.174 94.6197 243.007 94.402 242.781C94.1636 242.504 94.043 242.145 94.066 241.78C94.0608 241.434 94.1717 241.097 94.381 240.821C94.6188 240.52 94.9366 240.292 95.298 240.163C95.7466 240.001 96.2211 239.923 96.698 239.932C97.103 239.931 97.5069 239.976 97.902 240.065C98.2498 240.135 98.585 240.258 98.896 240.429L98.343 241.612C97.8421 241.327 97.2744 241.179 96.698 241.185C96.424 241.17 96.1504 241.22 95.9 241.332C95.8244 241.366 95.7596 241.419 95.7127 241.487C95.6657 241.555 95.6385 241.635 95.6339 241.717C95.6342 241.802 95.6625 241.884 95.7144 241.951C95.7663 242.018 95.8389 242.066 95.921 242.088C96.2198 242.183 96.5268 242.251 96.8379 242.291C97.2248 242.352 97.608 242.434 97.9859 242.536C98.2823 242.627 98.5485 242.796 98.756 243.026C98.8726 243.158 98.9617 243.312 99.0182 243.48C99.0746 243.647 99.0974 243.823 99.085 243.999C99.0903 244.341 98.9792 244.674 98.77 244.944C98.5244 245.24 98.2024 245.463 97.839 245.588C97.3734 245.749 96.8825 245.825 96.3899 245.812C95.9247 245.813 95.4613 245.754 95.0109 245.637Z" fill="white"/>
<path d="M105.7 243.341H101.381C101.447 243.681 101.643 243.982 101.927 244.181C102.248 244.394 102.627 244.501 103.012 244.489C103.282 244.496 103.55 244.451 103.803 244.356C104.043 244.26 104.262 244.117 104.447 243.936L105.329 244.895C105.027 245.212 104.659 245.458 104.252 245.616C103.844 245.775 103.406 245.842 102.97 245.812C102.379 245.826 101.794 245.699 101.262 245.441C100.786 245.209 100.387 244.845 100.114 244.391C99.85 243.93 99.7111 243.407 99.7111 242.876C99.7111 242.344 99.85 241.821 100.114 241.36C100.376 240.915 100.757 240.552 101.213 240.31C101.691 240.054 102.225 239.924 102.767 239.932C103.296 239.924 103.818 240.049 104.286 240.296C104.733 240.531 105.103 240.891 105.35 241.332C105.604 241.814 105.725 242.356 105.7 242.9C105.7 242.9 105.7 243.068 105.7 243.341ZM101.808 241.5C101.55 241.721 101.385 242.031 101.346 242.368H104.146C104.1 242.031 103.933 241.723 103.677 241.5C103.414 241.282 103.08 241.167 102.739 241.178C102.4 241.169 102.069 241.283 101.808 241.5Z" fill="white"/>
<path d="M40.4391 180.817C40.182 180.819 39.9332 180.727 39.7391 180.558L37.6881 178.745C37.4792 178.559 37.3527 178.298 37.3363 178.019C37.3199 177.74 37.4149 177.466 37.6006 177.257C37.7862 177.049 38.0472 176.922 38.3262 176.906C38.6052 176.889 38.8792 176.984 39.0881 177.17L40.3691 178.297L43.2671 175.091C43.4593 174.913 43.7113 174.813 43.9736 174.811C44.2359 174.809 44.4893 174.905 44.6842 175.08C44.8791 175.256 45.0012 175.498 45.0265 175.759C45.0518 176.02 44.9785 176.281 44.8211 176.491L41.2301 180.46C41.1302 180.571 41.0083 180.66 40.8721 180.722C40.7359 180.783 40.5885 180.816 40.4391 180.817Z" fill="#508A95"/>
<path d="M40.4391 197.092C40.182 197.094 39.9332 197.002 39.7391 196.833L37.6881 195.027C37.5842 194.935 37.4995 194.824 37.4387 194.699C37.3779 194.574 37.3423 194.439 37.3338 194.3C37.3167 194.021 37.4115 193.746 37.5971 193.536C37.7828 193.326 38.0441 193.199 38.3238 193.182C38.6034 193.165 38.8783 193.259 39.0881 193.445L40.3621 194.6L43.2601 191.401C43.3476 191.284 43.4585 191.187 43.5856 191.116C43.7127 191.045 43.8533 191 43.9984 190.986C44.1435 190.972 44.2899 190.989 44.4284 191.034C44.5668 191.08 44.6943 191.154 44.8026 191.251C44.9109 191.349 44.9977 191.468 45.0575 191.601C45.1173 191.734 45.1487 191.878 45.1498 192.024C45.1508 192.169 45.1216 192.314 45.0638 192.448C45.006 192.582 44.921 192.702 44.8141 192.801L41.2231 196.77C41.122 196.875 41 196.958 40.865 197.014C40.7301 197.069 40.585 197.096 40.4391 197.092Z" fill="#508A95"/>
<path d="M40.4391 213.374C40.182 213.376 39.9332 213.284 39.7391 213.115L37.6881 211.302C37.5847 211.21 37.5004 211.099 37.44 210.974C37.3796 210.85 37.3444 210.715 37.3363 210.576C37.3281 210.438 37.3473 210.3 37.3926 210.169C37.438 210.039 37.5087 209.918 37.6006 209.815C37.6925 209.711 37.8039 209.627 37.9284 209.567C38.0529 209.506 38.1881 209.471 38.3262 209.463C38.4643 209.455 38.6027 209.474 38.7334 209.519C38.8642 209.565 38.9847 209.635 39.0881 209.727L40.3691 210.854L43.2671 207.648C43.3546 207.532 43.4655 207.434 43.5926 207.363C43.7197 207.292 43.8602 207.248 44.0053 207.233C44.1504 207.219 44.2969 207.236 44.4354 207.281C44.5738 207.327 44.7013 207.401 44.8096 207.498C44.9179 207.596 45.0047 207.715 45.0645 207.848C45.1242 207.981 45.1557 208.125 45.1567 208.271C45.1578 208.416 45.1285 208.561 45.0707 208.695C45.013 208.829 44.9279 208.949 44.8211 209.048L41.2301 213.017C41.1302 213.128 41.0083 213.217 40.8721 213.279C40.7359 213.34 40.5885 213.373 40.4391 213.374Z" fill="#508A95"/>
<path d="M87.01 133.154L82.46 130.697L77.854 133.049L78.785 127.967L75.124 124.313L80.248 123.627L82.593 119.014L84.833 123.676L89.943 124.481L86.198 128.051L87.01 133.154Z" fill="white"/>
<path d="M142.527 269.535C142.527 268.065 142.464 201.25 142.366 102.543L142.527 102.711L22.4 102.725L22.582 102.543C22.582 165.025 22.582 222.838 22.547 269.535L22.4 269.388L142.541 269.535L22.4 269.682H22.253V269.535C22.253 222.838 22.253 165.025 22.218 102.543V102.361H22.4H142.527H142.695V102.522C142.597 201.25 142.534 268.1 142.527 269.535Z" fill="#263238"/>
</svg>
